<svg width="100" height="126" viewBox="0 0 100 126" fill="none" xmlns="http://www.w3.org/2000/svg">
<g opacity="0.8">
<path d="M36.4824 61.655C36.4689 61.7445 36.4869 61.836 36.5332 61.9137C36.5796 61.9915 36.6515 62.0508 36.7367 62.0814C37.1475 62.144 37.6482 62.2105 38.2038 62.2888C39.8586 58.6974 41.5486 55.869 41.0714 56.9878C40.3423 58.7456 39.8643 60.5973 39.6512 62.4883C40.2968 62.5744 41.8029 62.7583 42.5541 62.8482C44.2832 56.4401 46.1885 51.7299 45.9655 53.2087C45.0578 59.1747 45.2182 61.123 45.4256 63.2081C52.4401 64.061 61.6532 65.0703 68.3312 65.6454C69.4227 62.1245 70.4438 58.2749 70.5377 58.5566C71.2692 60.6496 71.2536 63.6072 71.0697 65.8762C73.1979 66.0445 74.9036 66.1344 75.9482 66.1344C75.9482 66.1344 76.7306 63.1534 76.8714 62.1675C77.2903 59.645 77.2665 57.0688 76.801 54.5545C76.3198 51.9881 75.2948 49.6799 74.3364 47.3209C74.3335 47.3063 74.3295 47.2919 74.3246 47.2779C73.6889 45.7324 73.2321 44.1192 72.9632 42.4698C72.9606 42.4569 72.9606 42.4436 72.9632 42.4307C72.7843 41.2279 72.7071 40.0121 72.7324 38.7963C72.8184 34.3443 70.8232 30.3422 67.0324 28.8947C60.5578 22.2792 51.6655 25.3151 49.1539 30.9094C48.1719 33.4171 47.1978 36.6916 46.3488 39.2149C46.3512 39.2191 46.3525 39.2238 46.3525 39.2286C46.3525 39.2334 46.3512 39.2382 46.3488 39.2423C46.0285 40.2321 45.6483 41.2015 45.2104 42.1451C42.8827 46.6519 38.3994 48.9757 36.4824 61.655Z" fill="#263238"/>
<path d="M68.5933 30.2092C71.0228 31.8171 72.4077 34.0118 72.5055 37.2745C72.5681 39.1758 72.5055 41.0263 73.0415 42.8532C73.5774 44.7389 74.5476 46.3272 75.5531 47.9116C77.1453 50.4311 78.1938 52.9035 78.1898 56.0959C78.1859 59.2882 77.7047 63.1377 76.4176 66.0679C76.4176 66.0875 76.3863 66.0679 76.3942 66.0679C77.4896 63.0751 77.8886 58.8578 77.6656 55.6264C77.4191 52.0742 75.7604 49.7347 74.0938 46.9297C72.751 44.703 72.0083 42.1663 71.9382 39.567C71.8913 37.9552 72.0634 36.2926 71.594 34.7433C71.0384 32.8968 69.7083 31.6488 68.3782 30.5339C68.2021 30.3735 68.4095 30.0879 68.5933 30.2092Z" fill="#263238"/>
<path d="M40.4298 46.8123C42.4563 44.4298 44.5258 42.4229 45.8638 39.3792C47.0804 36.6055 47.8981 33.644 49.1304 30.8781C49.1304 30.8312 49.2126 30.8547 49.193 30.9055C47.2369 35.8348 46.4858 40.8971 43.0666 44.9149C41.2044 47.0979 39.3618 49.1127 38.0238 51.7925C36.6557 54.6187 35.8 57.6652 35.4966 60.7904C35.4966 60.9 35.3518 60.8843 35.3518 60.7904C35.3499 55.6792 37.1477 50.7305 40.4298 46.8123Z" fill="#263238"/>
<path d="M20.7282 107.525C20.7282 107.525 39.6122 112.611 42.7341 112.063C45.856 111.515 56.3953 97.3299 58.7348 92.1854C61.0742 87.0409 64.959 61.4476 64.2118 58.6309C63.4646 55.8141 59.5563 55.775 56.2584 63.036C52.9604 70.2969 45.1635 86.2585 43.7747 87.573C42.3859 88.8875 19.2064 106.164 20.7282 107.525Z" fill="#DD6A57"/>
<path d="M41.0948 110.381C38.1998 108.867 34.6749 105.193 32.2729 104.81C31.6853 104.695 31.0763 104.772 30.5359 105.03C29.9955 105.288 29.5525 105.713 29.2722 106.242C29.2722 106.242 28.169 103.789 25.9313 103.801C24.785 103.801 23.7835 105.647 23.7835 105.647C23.7835 105.647 22.8094 103.718 20.8259 103.851C19.2415 103.957 18.4786 105.788 18.4786 105.788C18.4786 105.788 16.6869 104.372 15.1064 105.006C11.9062 106.269 11.3742 119.872 16.3035 122.172C18.5999 123.244 18.549 119.915 18.549 119.915C18.549 119.915 19.7775 124.688 22.5786 124.867C25.3797 125.047 25.0549 120.728 25.0549 120.728C25.0549 120.728 26.2873 125.341 29.2096 125.235C32.2533 125.13 31.1892 120.861 31.1892 120.861C31.1892 120.861 33.1218 123.968 35.34 123.373C39.0057 122.395 35.0661 115.032 35.8955 112.071H40.5001L41.0948 110.381Z" fill="#DD6A57"/>
<path d="M36.9167 107.486C39.7843 108.683 43.0549 104.157 46.0046 105.209C49.8307 106.574 46.2941 111.296 40.4963 112.063H35.8917L36.9167 107.486Z" fill="#DD6A57"/>
<path d="M18.3103 106.058C18.3103 106.049 18.3066 106.04 18.3 106.033C18.2934 106.026 18.2845 106.023 18.2751 106.023C18.2658 106.023 18.2568 106.026 18.2502 106.033C18.2436 106.04 18.2399 106.049 18.2399 106.058C16.9763 110.49 16.9411 115.748 18.5255 120.106C18.5764 120.247 18.8346 120.228 18.8072 120.059C18.0326 115.24 17.7274 110.913 18.3103 106.058Z" fill="#263238"/>
<path d="M23.7561 105.569C23.7561 105.514 23.674 105.502 23.6583 105.569C22.3791 110.146 22.4847 116.065 24.922 120.877C25.0041 121.041 25.2467 121.104 25.1645 120.908C23.7992 117.591 23.2084 109.947 23.7561 105.569Z" fill="#263238"/>
<path d="M31.4709 121.147C29.331 116.452 28.9124 111.535 29.2097 106.426C29.2097 106.359 29.1197 106.359 29.1001 106.426C28.2747 108.886 28.4272 112.161 28.7598 114.7C29.0199 117.056 29.8926 119.303 31.2909 121.217C31.3614 121.3 31.5178 121.249 31.4709 121.147Z" fill="#263238"/>
<path d="M46.2313 104.849C44.3535 104.223 42.4248 105.725 40.8443 106.566C40.3384 106.868 39.8053 107.12 39.2521 107.322C38.0002 107.713 37.073 107.462 36.5135 107.114C35.6372 106.555 32.9026 103.824 30.927 104.732C30.2454 105.051 29.6618 105.546 29.2369 106.167C28.6345 105.072 27.8638 103.879 26.5297 103.66C26.2358 103.61 25.9346 103.623 25.6461 103.698C25.3575 103.773 25.088 103.908 24.8553 104.094C24.6067 104.286 24.3856 104.511 24.1981 104.763C24.0123 104.989 23.8595 105.241 23.7443 105.51C23.7438 105.501 23.7438 105.492 23.7443 105.483L23.7013 105.401L23.6191 105.232C23.5074 105.007 23.3487 104.808 23.1536 104.65C23.1164 104.612 23.0719 104.582 23.0228 104.561C22.9737 104.541 22.921 104.531 22.868 104.532C22.8597 104.532 22.8517 104.535 22.8458 104.541C22.84 104.547 22.8367 104.555 22.8367 104.563C22.8367 104.572 22.84 104.58 22.8458 104.586C22.8517 104.591 22.8597 104.595 22.868 104.595C22.9596 104.638 23.034 104.711 23.0792 104.802C23.1418 104.896 23.2005 104.994 23.267 105.084C23.3335 105.174 23.3961 105.268 23.4626 105.358L23.5604 105.502L23.6035 105.577C23.6223 105.601 23.6432 105.623 23.666 105.643C23.6715 105.651 23.6786 105.656 23.6867 105.661C23.6949 105.665 23.7039 105.667 23.713 105.667C23.7221 105.667 23.7311 105.665 23.7392 105.661C23.7474 105.656 23.7545 105.651 23.7599 105.643C23.9612 105.464 24.1434 105.265 24.3037 105.049C24.5008 104.819 24.7196 104.61 24.9571 104.423C25.1826 104.248 25.4423 104.123 25.7193 104.056C25.9964 103.988 26.2845 103.98 26.5649 104.031C27.7621 104.266 28.521 105.33 29.1587 106.281C29.1587 106.281 29.1587 106.281 29.1783 106.281C29.1587 106.312 29.2017 106.34 29.2252 106.316C29.8825 105.741 30.5084 105.096 31.416 104.963C32.3941 104.818 33.3212 105.287 34.131 105.78C34.5367 106.019 34.9285 106.28 35.3047 106.563C35.6372 106.821 35.9541 107.11 36.3101 107.345C37.8319 108.303 39.4985 107.56 39.9132 107.384C40.731 107.016 41.5242 106.595 42.2879 106.124C43.0554 105.61 43.9212 105.259 44.8308 105.096C45.2484 105.034 45.6747 105.079 46.0701 105.227C46.4655 105.375 46.8171 105.62 47.092 105.941C47.3776 106.308 47.7414 106.997 46.9942 108.566C46.9942 108.566 46.9942 108.597 47.0177 108.585C47.4089 108.178 48.6529 105.659 46.2313 104.849Z" fill="#263238"/>
<path d="M62.7289 82.4011L44.9091 79.5531C44.9091 79.5531 53.4219 62.6956 58.5351 57.8054C63.5818 52.9778 66.0386 57.9228 65.2953 65.3793C64.4737 73.6457 62.7289 82.4011 62.7289 82.4011Z" fill="#37474F"/>
<path d="M62.1501 79.0836C61.6493 78.9662 61.1368 78.8919 60.6361 78.7784C60.1353 78.665 59.6541 78.5946 59.1612 78.5202C58.1558 78.3638 57.1464 78.2229 56.141 78.086C54.1536 77.8121 52.1663 77.5109 50.1711 77.3036C49.0366 77.1784 47.9099 77.0062 46.7714 76.9124C46.7362 76.9124 46.7323 76.9671 46.7714 76.9749C48.7471 77.4366 50.7579 77.7574 52.7609 78.1056C54.7639 78.4537 56.7357 78.7354 58.7309 78.9506C59.2903 79.0132 59.8536 79.0836 60.4131 79.111C60.9725 79.1384 61.5672 79.1931 62.1422 79.201C62.1578 79.202 62.1732 79.1968 62.1849 79.1865C62.1966 79.1763 62.2038 79.1618 62.2048 79.1462C62.2059 79.1306 62.2007 79.1153 62.1904 79.1036C62.1802 79.0918 62.1656 79.0846 62.1501 79.0836Z" fill="#263238"/>
<path d="M52.8079 112.22H100C100 112.22 80.3846 63.5367 70.4125 56.4245C67.4198 54.2884 62.6508 54.0498 59.4351 58.3375C56.7983 61.8584 49.4786 75.8444 49.1461 80.8754C48.8136 85.9064 52.7609 90.8788 52.7609 90.8788L52.8079 112.22Z" fill="#455A64"/>
<path d="M68.4327 79.2323C68.554 79.201 68.6714 79.1854 68.7887 79.1619C68.8922 79.1384 68.9997 79.1385 69.1031 79.1622C69.2066 79.1859 69.3033 79.2325 69.3863 79.2986C69.4694 79.3647 69.5365 79.4486 69.5827 79.5441C69.6289 79.6396 69.653 79.7443 69.6533 79.8504C69.6504 79.9448 69.6719 80.0384 69.7157 80.122C69.7596 80.2056 69.8244 80.2765 69.9037 80.3277C69.9925 80.3835 70.0928 80.4183 70.1971 80.4294C70.3169 80.4469 70.4357 80.4704 70.5531 80.4999C70.4358 80.5311 70.3184 80.5468 70.1971 80.5703C70.066 80.5963 69.9302 80.5841 69.8059 80.5351C69.6736 80.4786 69.5609 80.3842 69.4822 80.2637C69.4035 80.1432 69.3623 80.0021 69.3638 79.8583C69.3616 79.7642 69.3357 79.6723 69.2885 79.5909C69.2413 79.5095 69.1744 79.4414 69.0939 79.3927C69.0009 79.342 68.8982 79.3114 68.7927 79.3027C68.6714 79.2792 68.554 79.2636 68.4327 79.2323Z" fill="white"/>
<path d="M50.3821 79.2323C50.4994 79.201 50.6168 79.1854 50.7342 79.1619C50.8377 79.1384 50.9451 79.1385 51.0485 79.1622C51.152 79.1859 51.2488 79.2325 51.3318 79.2986C51.4148 79.3647 51.4819 79.4486 51.5281 79.5441C51.5743 79.6396 51.5985 79.7443 51.5988 79.8504C51.5966 79.9451 51.6189 80.0388 51.6634 80.1224C51.7079 80.206 51.7733 80.2767 51.8531 80.3277C51.9413 80.3847 52.0419 80.4196 52.1465 80.4294C52.2638 80.4529 52.3812 80.4646 52.4986 80.4999C52.3812 80.5311 52.2638 80.5468 52.1465 80.5703C52.0153 80.5957 51.8797 80.5835 51.7552 80.5351C51.6238 80.4773 51.512 80.3826 51.4335 80.2624C51.355 80.1422 51.3132 80.0018 51.3132 79.8583C51.3109 79.7642 51.285 79.6723 51.2379 79.5909C51.1907 79.5095 51.1237 79.4414 51.0432 79.3927C50.9504 79.3415 50.8477 79.3108 50.742 79.3027C50.6168 79.2792 50.4994 79.2636 50.3821 79.2323Z" fill="white"/>
<path d="M74.9895 102.682C75.1069 102.65 75.2281 102.635 75.3455 102.611C75.449 102.589 75.5561 102.59 75.659 102.615C75.7619 102.639 75.8581 102.687 75.9405 102.753C76.0229 102.819 76.0895 102.903 76.1355 102.998C76.1815 103.094 76.2056 103.198 76.2062 103.304C76.2051 103.398 76.2279 103.491 76.2723 103.575C76.3167 103.658 76.3814 103.729 76.4605 103.781C76.5495 103.836 76.6499 103.869 76.7539 103.879C76.8712 103.902 76.9925 103.918 77.1099 103.949C76.9925 103.984 76.8712 104 76.7539 104.024C76.6224 104.048 76.4867 104.035 76.3627 103.984C76.2302 103.928 76.1173 103.833 76.038 103.713C75.9587 103.593 75.9165 103.452 75.9167 103.308C75.916 103.214 75.8908 103.122 75.8434 103.041C75.796 102.96 75.7282 102.893 75.6467 102.846C75.5561 102.793 75.4542 102.762 75.3494 102.756C75.2281 102.733 75.1069 102.717 74.9895 102.682Z" fill="white"/>
<path d="M83.1503 80.4999C83.2676 80.4647 83.3889 80.4529 83.5063 80.4294C83.6096 80.4059 83.7168 80.406 83.8201 80.4296C83.9234 80.4533 84.0199 80.5 84.1027 80.5661C84.1854 80.6323 84.2521 80.7163 84.2979 80.8119C84.3436 80.9074 84.3672 81.012 84.367 81.118C84.3655 81.2125 84.3881 81.3059 84.4326 81.3894C84.4771 81.4729 84.542 81.5437 84.6212 81.5953C84.7093 81.6521 84.8102 81.6857 84.9147 81.6931C85.032 81.7205 85.1533 81.7322 85.2707 81.7674C85.1533 81.7987 85.032 81.8143 84.9147 81.8378C84.7836 81.8641 84.6477 81.8519 84.5234 81.8026C84.391 81.7459 84.2781 81.6515 84.1988 81.5312C84.1195 81.4109 84.0773 81.2699 84.0774 81.1258C84.0767 81.0315 84.0514 80.9389 84.0041 80.8573C83.9568 80.7757 83.889 80.7078 83.8075 80.6603C83.7161 80.609 83.6147 80.5783 83.5102 80.5703C83.3889 80.5312 83.2676 80.5312 83.1503 80.4999Z" fill="white"/>
<path d="M62.2869 68.5717C62.4081 68.5404 62.5255 68.5248 62.6429 68.5013C62.7732 68.4727 62.909 68.4823 63.0341 68.5287C63.1699 68.5794 63.2871 68.6701 63.3702 68.7888C63.4534 68.9076 63.4985 69.0488 63.4996 69.1937C63.4993 69.2881 63.5223 69.3811 63.5667 69.4644C63.6111 69.5477 63.6754 69.6187 63.7539 69.671C63.8438 69.7238 63.9438 69.7571 64.0473 69.7688C64.1686 69.7923 64.286 69.8079 64.4033 69.8392C64.286 69.8745 64.1686 69.8862 64.0473 69.9136C63.9158 69.9363 63.7806 69.9228 63.6561 69.8745C63.5219 69.8172 63.408 69.721 63.3291 69.5982C63.2503 69.4754 63.2102 69.3318 63.214 69.1859C63.2123 69.0923 63.1865 69.0007 63.1392 68.9199C63.092 68.8391 63.0248 68.7717 62.9441 68.7243C62.8521 68.6705 62.7491 68.6384 62.6429 68.6304C62.5255 68.6186 62.4081 68.6069 62.2869 68.5717Z" fill="white"/>
<path d="M75.1305 68.3018C75.2479 68.2705 75.3652 68.2548 75.4865 68.2314C75.6169 68.2039 75.7524 68.2134 75.8777 68.2588C76.0133 68.3102 76.1305 68.401 76.2142 68.5195C76.2978 68.638 76.3441 68.7788 76.3472 68.9238C76.3454 69.0184 76.3678 69.112 76.4123 69.1955C76.4568 69.279 76.5219 69.3498 76.6015 69.4011C76.6903 69.4562 76.7908 69.4897 76.8949 69.4989C77.0122 69.5224 77.1296 69.538 77.2509 69.5693C77.1296 69.6045 77.0122 69.6202 76.8949 69.6437C76.7634 69.6685 76.6276 69.6549 76.5037 69.6045C76.3712 69.5478 76.2583 69.4534 76.179 69.3331C76.0997 69.2128 76.0575 69.0718 76.0577 68.9277C76.0563 68.834 76.0307 68.7423 75.9834 68.6614C75.9361 68.5806 75.8687 68.5133 75.7877 68.4661C75.6971 68.4131 75.5952 68.3822 75.4904 68.3761C75.3693 68.3575 75.2491 68.3327 75.1305 68.3018Z" fill="white"/>
<path d="M66.8171 55.9745C66.9345 55.9432 67.0558 55.9276 67.1731 55.9041C67.2764 55.8806 67.3837 55.8806 67.487 55.9043C67.5902 55.928 67.6868 55.9746 67.7695 56.0408C67.8523 56.107 67.919 56.191 67.9647 56.2865C68.0105 56.3821 68.0341 56.4867 68.0338 56.5927C68.0317 56.6873 68.0539 56.781 68.0985 56.8646C68.143 56.9482 68.2083 57.0189 68.2881 57.0699C68.3766 57.1264 68.4771 57.1612 68.5815 57.1716C68.6989 57.1951 68.8202 57.2069 68.9375 57.2421C68.8202 57.2734 68.6989 57.289 68.5815 57.3125C68.4505 57.3388 68.3146 57.3265 68.1903 57.2773C68.0578 57.2206 67.945 57.1262 67.8657 57.0059C67.7864 56.8855 67.7442 56.7446 67.7443 56.6005C67.7436 56.5061 67.7183 56.4136 67.671 56.332C67.6236 56.2503 67.5559 56.1824 67.4744 56.1349C67.383 56.0837 67.2815 56.0529 67.1771 56.045C67.0558 56.0215 66.9345 56.0058 66.8171 55.9745Z" fill="white"/>
<path d="M59.1375 89.0439C59.2548 89.0126 59.3722 88.997 59.4895 88.9735C59.6199 88.9447 59.7557 88.9542 59.8808 89.0009C60.0167 89.0507 60.1343 89.1406 60.2181 89.2586C60.3019 89.3766 60.348 89.5173 60.3502 89.662C60.3481 89.7567 60.3703 89.8504 60.4149 89.934C60.4594 90.0176 60.5247 90.0883 60.6045 90.1393C60.6927 90.1963 60.7934 90.2312 60.8979 90.241C61.0153 90.2645 61.1326 90.2801 61.25 90.3114C61.1326 90.3467 61.0153 90.3584 60.8979 90.3819C60.7668 90.4073 60.6312 90.395 60.5067 90.3467C60.3753 90.2889 60.2635 90.1942 60.185 90.074C60.1065 89.9538 60.0647 89.8134 60.0646 89.6698C60.0624 89.5758 60.0365 89.4839 59.9893 89.4025C59.9421 89.3211 59.8752 89.253 59.7947 89.2043C59.7017 89.1536 59.599 89.123 59.4935 89.1143C59.3722 89.0909 59.2548 89.0791 59.1375 89.0439Z" fill="white"/>
<path d="M73.151 110.533C73.2684 110.498 73.3896 110.482 73.507 110.459C73.6105 110.437 73.7176 110.438 73.8205 110.463C73.9234 110.487 74.0196 110.534 74.102 110.601C74.1844 110.667 74.2511 110.751 74.297 110.846C74.343 110.941 74.3671 111.046 74.3677 111.151C74.3666 111.246 74.3894 111.339 74.4338 111.423C74.4782 111.506 74.543 111.577 74.622 111.629C74.7103 111.685 74.811 111.719 74.9154 111.727C75.0327 111.75 75.154 111.766 75.2714 111.797C75.154 111.832 75.0327 111.848 74.9154 111.871C74.7839 111.896 74.6482 111.882 74.5242 111.832C74.3914 111.776 74.2782 111.682 74.1989 111.561C74.1195 111.441 74.0775 111.3 74.0782 111.155C74.0775 111.062 74.0523 110.97 74.0049 110.889C73.9575 110.807 73.8897 110.74 73.8082 110.694C73.7176 110.641 73.6157 110.61 73.5109 110.604C73.3779 110.58 73.2566 110.565 73.151 110.533Z" fill="white"/>
<path d="M66.2461 98.9847C66.3635 98.9534 66.4808 98.9378 66.5982 98.9143C66.7286 98.8874 66.864 98.8969 66.9894 98.9417C67.1256 98.9922 67.2434 99.0828 67.3272 99.2015C67.411 99.3202 67.4569 99.4615 67.4589 99.6067C67.4571 99.7014 67.4795 99.7949 67.524 99.8784C67.5685 99.9619 67.6336 100.033 67.7131 100.084C67.8016 100.14 67.9023 100.173 68.0066 100.182C68.1239 100.205 68.2413 100.221 68.3626 100.252C68.2413 100.287 68.1239 100.299 68.0066 100.327C67.875 100.349 67.7399 100.335 67.6153 100.287C67.4839 100.23 67.3721 100.135 67.2936 100.015C67.2151 99.8946 67.1733 99.7542 67.1733 99.6107C67.1707 99.5172 67.1447 99.4259 67.0975 99.3452C67.0503 99.2645 66.9835 99.197 66.9033 99.149C66.8123 99.0937 66.7086 99.0627 66.6021 99.059C66.5004 99.0317 66.3635 99.0199 66.2461 98.9847Z" fill="white"/>
<path d="M53.4884 101.086C53.6097 101.05 53.727 101.035 53.8444 101.011C53.9479 100.989 54.055 100.99 54.1579 101.015C54.2608 101.039 54.357 101.086 54.4394 101.153C54.5218 101.219 54.5885 101.303 54.6344 101.398C54.6804 101.494 54.7045 101.598 54.7051 101.704C54.704 101.798 54.7268 101.891 54.7712 101.975C54.8157 102.058 54.8804 102.129 54.9594 102.181C55.0477 102.237 55.1484 102.271 55.2528 102.279C55.3741 102.302 55.4914 102.318 55.6088 102.349C55.4915 102.38 55.3726 102.405 55.2528 102.424C55.1213 102.448 54.9856 102.435 54.8616 102.384C54.7288 102.328 54.6156 102.234 54.5363 102.113C54.4569 101.993 54.4149 101.852 54.4156 101.708C54.415 101.614 54.3901 101.523 54.3435 101.442C54.2969 101.361 54.23 101.293 54.1496 101.246C54.0573 101.194 53.9543 101.163 53.8483 101.156C53.727 101.133 53.6097 101.117 53.4884 101.086Z" fill="white"/>
<path d="M72.118 89.3257C72.2354 89.2944 72.3528 89.2787 72.4701 89.2552C72.5738 89.2332 72.6811 89.2345 72.7842 89.259C72.8873 89.2834 72.9837 89.3305 73.0664 89.3968C73.1491 89.463 73.2161 89.5468 73.2625 89.6421C73.3089 89.7373 73.3336 89.8417 73.3347 89.9477C73.3329 90.0423 73.3554 90.1358 73.3999 90.2194C73.4444 90.3029 73.5095 90.3737 73.589 90.425C73.6775 90.4807 73.7782 90.5143 73.8824 90.5228C73.9998 90.5463 74.1172 90.5619 74.2345 90.5932C74.1172 90.6284 73.9998 90.6401 73.8824 90.6675C73.7509 90.6915 73.6154 90.6779 73.4912 90.6284C73.3598 90.5707 73.248 90.476 73.1695 90.3558C73.091 90.2356 73.0492 90.0951 73.0491 89.9516C73.0466 89.8582 73.0206 89.7669 72.9734 89.6862C72.9262 89.6055 72.8594 89.538 72.7792 89.49C72.6877 89.4358 72.5842 89.4049 72.478 89.4C72.3684 89.3726 72.2354 89.3609 72.118 89.3257Z" fill="white"/>
<path d="M88.4277 105.135C88.5451 105.103 88.6664 105.088 88.7837 105.064C88.9141 105.036 89.0499 105.045 89.175 105.092C89.3108 105.142 89.428 105.233 89.5111 105.352C89.5942 105.471 89.6394 105.612 89.6405 105.757C89.6402 105.851 89.6632 105.944 89.7076 106.027C89.752 106.111 89.8163 106.182 89.8948 106.234C89.9847 106.287 90.0846 106.32 90.1882 106.332C90.3095 106.355 90.4268 106.371 90.5442 106.402C90.4268 106.437 90.3095 106.449 90.1882 106.477C90.0842 106.496 89.9772 106.492 89.875 106.464C89.7728 106.437 89.678 106.387 89.5974 106.319C89.5169 106.25 89.4526 106.164 89.4093 106.068C89.366 105.971 89.3448 105.866 89.3471 105.761C89.3465 105.667 89.3212 105.575 89.2738 105.494C89.2264 105.413 89.1586 105.346 89.0772 105.299C88.9869 105.245 88.885 105.212 88.7798 105.205C88.6664 105.178 88.5451 105.178 88.4277 105.135Z" fill="white"/>
<path d="M81.9531 95.4834C82.0705 95.4521 82.1918 95.4364 82.3091 95.413C82.4126 95.3909 82.5197 95.3921 82.6226 95.4166C82.7255 95.4411 82.8217 95.4882 82.9041 95.5545C82.9866 95.6209 83.0532 95.7047 83.0991 95.8C83.1451 95.8953 83.1692 95.9996 83.1698 96.1054C83.168 96.2 83.1904 96.2936 83.2349 96.3771C83.2795 96.4606 83.3446 96.5314 83.4241 96.5827C83.5121 96.6395 83.613 96.6731 83.7175 96.6805C83.8349 96.704 83.9562 96.7196 84.0735 96.7509C83.9562 96.7861 83.8349 96.8018 83.7175 96.8253C83.5861 96.8501 83.4502 96.8365 83.3263 96.7861C83.1935 96.7298 83.0804 96.6356 83.001 96.5151C82.9217 96.3947 82.8797 96.2535 82.8803 96.1093C82.8797 96.0155 82.8544 95.9235 82.807 95.8424C82.7596 95.7614 82.6918 95.6943 82.6104 95.6477C82.5197 95.5947 82.4179 95.5638 82.313 95.5577C82.1918 95.5342 82.0705 95.5186 81.9531 95.4834Z" fill="white"/>
<path d="M95.7162 109.547C95.8375 109.516 95.9548 109.501 96.0722 109.477C96.1757 109.455 96.2827 109.456 96.3857 109.481C96.4886 109.505 96.5848 109.552 96.6672 109.619C96.7496 109.685 96.8162 109.769 96.8622 109.864C96.9081 109.959 96.9323 110.064 96.9329 110.17C96.9318 110.264 96.9546 110.357 96.999 110.441C97.0434 110.524 97.1081 110.595 97.1872 110.647C97.2755 110.703 97.3762 110.737 97.4806 110.745C97.6018 110.768 97.7192 110.784 97.8366 110.815C97.7192 110.846 97.6004 110.871 97.4806 110.889C97.3491 110.914 97.2133 110.9 97.0894 110.85C96.9567 110.794 96.8438 110.7 96.765 110.579C96.6863 110.459 96.6453 110.317 96.6473 110.173C96.6448 110.08 96.6187 109.989 96.5715 109.908C96.5243 109.827 96.4575 109.76 96.3773 109.712C96.285 109.659 96.182 109.629 96.0761 109.622C95.9548 109.598 95.8414 109.583 95.7162 109.547Z" fill="white"/>
<path d="M63.3706 75.234C63.3119 75.3397 63.2375 75.4336 63.171 75.5353C63.1142 75.625 63.0379 75.7008 62.9478 75.757C62.8577 75.8133 62.7561 75.8485 62.6505 75.8601C62.545 75.8718 62.4381 75.8595 62.3379 75.8243C62.2377 75.7891 62.1467 75.7317 62.0717 75.6566C62.0065 75.5881 61.9246 75.5377 61.8341 75.5103C61.7436 75.4829 61.6476 75.4794 61.5553 75.5001C61.4531 75.5229 61.3579 75.5699 61.2775 75.637C61.1808 75.7089 61.0802 75.7755 60.9763 75.8365C61.0389 75.7309 61.1093 75.637 61.1758 75.5353C61.2526 75.4229 61.3598 75.3346 61.4849 75.281C61.6171 75.229 61.7617 75.2169 61.9007 75.2461C62.0397 75.2753 62.1672 75.3445 62.2673 75.4453C62.3351 75.5106 62.4186 75.5575 62.5097 75.5815C62.6007 75.6055 62.6964 75.6057 62.7876 75.5822C62.8892 75.5545 62.9829 75.5036 63.0615 75.4336C63.1867 75.3671 63.2806 75.2927 63.3706 75.234Z" fill="white"/>
<path d="M58.6485 67.312C58.5898 67.4176 58.5155 67.5115 58.449 67.6132C58.3922 67.7029 58.3158 67.7787 58.2257 67.8349C58.1356 67.8912 58.034 67.9264 57.9285 67.9381C57.8229 67.9497 57.7161 67.9375 57.6159 67.9022C57.5157 67.867 57.4247 67.8096 57.3497 67.7345C57.2847 67.6657 57.2028 67.6151 57.1123 67.5877C57.0217 67.5602 56.9255 67.5569 56.8333 67.578C56.7311 67.6009 56.6359 67.6478 56.5555 67.7149C56.4588 67.7868 56.3582 67.8534 56.2543 67.9144C56.3169 67.8088 56.3873 67.7149 56.4538 67.6132C56.5305 67.5008 56.6377 67.4126 56.7628 67.3589C56.8951 67.3069 57.0396 67.2948 57.1787 67.324C57.3177 67.3532 57.4451 67.4224 57.5453 67.5232C57.6129 67.5889 57.6963 67.636 57.7875 67.66C57.8786 67.684 57.9744 67.684 58.0656 67.6601C58.1671 67.6324 58.2609 67.5815 58.3395 67.5115C58.449 67.445 58.5429 67.3706 58.6485 67.312Z" fill="white"/>
<path d="M82.5401 89.0244C82.4775 89.134 82.4071 89.2279 82.3406 89.3257C82.2662 89.4391 82.162 89.5298 82.0393 89.5878C81.9096 89.6442 81.766 89.661 81.6268 89.6359C81.4875 89.6109 81.3588 89.5451 81.2569 89.4469C81.191 89.3794 81.1091 89.3297 81.0188 89.3023C80.9285 89.275 80.8328 89.2709 80.7405 89.2904C80.6384 89.3135 80.5432 89.3604 80.4627 89.4274C80.361 89.4939 80.2671 89.5682 80.1615 89.6269C80.2202 89.5213 80.2945 89.4274 80.361 89.3257C80.4362 89.2134 80.5421 89.1251 80.6662 89.0714C80.7986 89.0209 80.9428 89.0095 81.0815 89.0386C81.2202 89.0678 81.3476 89.1362 81.4486 89.2357C81.5154 89.3013 81.5981 89.3485 81.6887 89.3725C81.7792 89.3965 81.8744 89.3965 81.965 89.3726C82.0673 89.3458 82.1622 89.2963 82.2428 89.2279C82.3523 89.1613 82.4462 89.087 82.5401 89.0244Z" fill="white"/>
<path d="M70.5925 63.3489C70.5338 63.4546 70.4595 63.5485 70.393 63.6502C70.3198 63.7622 70.2168 63.8516 70.0956 63.9084C69.9635 63.968 69.8166 63.9869 69.6737 63.9625C69.5308 63.9381 69.3985 63.8716 69.2937 63.7715C69.2281 63.7033 69.1464 63.6528 69.0561 63.6247C68.9658 63.5967 68.8699 63.592 68.7772 63.6111C68.6754 63.6348 68.5803 63.6816 68.4995 63.748C68.3978 63.8145 68.3039 63.8888 68.1982 63.9514C68.2569 63.8419 68.3313 63.748 68.3978 63.6463C68.4736 63.5339 68.5812 63.4467 68.7068 63.3959C68.839 63.3439 68.9836 63.3318 69.1226 63.361C69.2617 63.3902 69.3891 63.4594 69.4893 63.5602C69.5577 63.6286 69.6426 63.6782 69.7358 63.7042C69.829 63.7303 69.9273 63.7319 70.0213 63.7089C70.1222 63.6795 70.2156 63.6288 70.2952 63.5602C70.4125 63.482 70.4868 63.4076 70.5925 63.3489Z" fill="white"/>
<path d="M62.3065 57.4964C62.2478 57.6021 62.1734 57.696 62.1069 57.7977C62.0331 57.9101 61.9304 58.0006 61.8096 58.0598C61.6771 58.1189 61.53 58.1371 61.3871 58.112C61.2442 58.087 61.112 58.0197 61.0076 57.9189C60.9424 57.8505 60.8605 57.8001 60.77 57.7727C60.6795 57.7453 60.5835 57.7418 60.4912 57.7625C60.3888 57.7846 60.2934 57.8316 60.2135 57.8994C60.1117 57.9659 60.0179 58.0402 59.9122 58.0989C59.9709 57.9933 60.0452 57.8994 60.1118 57.7977C60.1875 57.6843 60.295 57.5959 60.4208 57.5434C60.553 57.4914 60.6976 57.4793 60.8366 57.5085C60.9757 57.5377 61.1031 57.6069 61.2032 57.7077C61.2706 57.7737 61.354 57.821 61.4453 57.845C61.5365 57.869 61.6324 57.8689 61.7236 57.8446C61.8251 57.8169 61.9188 57.766 61.9974 57.696C62.1069 57.6295 62.1969 57.5551 62.3065 57.4964Z" fill="white"/>
<path d="M70.1269 70.7977C70.1621 70.915 70.1738 71.0363 70.2012 71.1537C70.2255 71.2843 70.216 71.4189 70.1738 71.5449C70.1222 71.6801 70.0313 71.7967 69.9127 71.8797C69.7942 71.9627 69.6535 72.0082 69.5088 72.0104C69.4142 72.009 69.3208 72.0316 69.2374 72.0761C69.1539 72.1205 69.0831 72.1855 69.0315 72.2647C68.9747 72.3527 68.9411 72.4537 68.9337 72.5581C68.9063 72.6755 68.8946 72.7968 68.8594 72.9141C68.8281 72.7968 68.8124 72.6755 68.7889 72.5581C68.7623 72.4268 68.7759 72.2904 68.8281 72.1669C68.8839 72.0338 68.9781 71.9204 69.0986 71.841C69.2191 71.7616 69.3605 71.7198 69.5049 71.7209C69.5986 71.7199 69.6905 71.6945 69.7714 71.6471C69.8524 71.5998 69.9196 71.5322 69.9665 71.451C70.0178 71.3596 70.0485 71.2582 70.0565 71.1537C70.0799 71.0363 70.0956 70.915 70.1269 70.7977Z" fill="white"/>
<path d="M67.3061 91.6377C67.3374 91.7551 67.353 91.8763 67.3765 91.9937C67.3986 92.0972 67.3974 92.2042 67.3729 92.3072C67.3484 92.4101 67.3013 92.5063 67.2349 92.5887C67.1686 92.6711 67.0848 92.7377 66.9895 92.7837C66.8942 92.8296 66.7899 92.8538 66.6841 92.8544C66.5894 92.8526 66.4959 92.875 66.4124 92.9195C66.3289 92.964 66.2581 93.0291 66.2068 93.1087C66.1517 93.1975 66.1182 93.298 66.109 93.4021C66.0855 93.5194 66.0699 93.6407 66.0386 93.7581C66.0033 93.6407 65.9877 93.5194 65.9642 93.4021C65.9394 93.2706 65.953 93.1348 66.0034 93.0109C66.0601 92.8784 66.1544 92.7655 66.2748 92.6862C66.3951 92.6069 66.536 92.5647 66.6801 92.5649C66.774 92.5642 66.866 92.539 66.947 92.4916C67.0281 92.4442 67.0952 92.3764 67.1418 92.2949C67.1948 92.2043 67.2257 92.1024 67.2318 91.9976C67.2552 91.8763 67.2826 91.7551 67.3061 91.6377Z" fill="white"/>
<path d="M94.6676 101.293C94.7028 101.41 94.7184 101.528 94.7419 101.645C94.7639 101.749 94.7627 101.856 94.7382 101.959C94.7137 102.062 94.6667 102.158 94.6004 102.241C94.5342 102.324 94.4504 102.391 94.3551 102.437C94.2598 102.484 94.1554 102.508 94.0495 102.51C93.9548 102.508 93.8613 102.53 93.7778 102.575C93.6943 102.619 93.6235 102.684 93.5722 102.764C93.5148 102.852 93.4811 102.953 93.4744 103.057C93.4509 103.175 93.4353 103.292 93.404 103.409C93.3687 103.292 93.3531 103.175 93.3296 103.057C93.3057 102.926 93.3193 102.79 93.3687 102.666C93.4261 102.534 93.5207 102.422 93.641 102.344C93.7612 102.265 93.9019 102.224 94.0456 102.224C94.139 102.221 94.2303 102.195 94.311 102.148C94.3917 102.101 94.4592 102.034 94.5072 101.954C94.5596 101.862 94.5904 101.759 94.5972 101.653C94.6246 101.528 94.6402 101.41 94.6676 101.293Z" fill="white"/>
<path d="M81.9922 73.6848C82.0235 73.8022 82.0392 73.9196 82.0627 74.0409C82.0901 74.1713 82.0806 74.3068 82.0353 74.4321C81.9838 74.5677 81.893 74.6848 81.7745 74.7685C81.656 74.8521 81.5152 74.8985 81.3702 74.9015C81.2756 74.8997 81.1821 74.9222 81.0985 74.9667C81.015 75.0112 80.9442 75.0763 80.8929 75.1558C80.8379 75.2446 80.8044 75.3451 80.7951 75.4492C80.7717 75.5666 80.756 75.684 80.7247 75.8052C80.6895 75.684 80.6778 75.5666 80.6504 75.4492C80.6312 75.3452 80.6354 75.2382 80.6627 75.136C80.69 75.0338 80.7398 74.939 80.8084 74.8585C80.8769 74.7779 80.9626 74.7136 81.0591 74.6703C81.1556 74.627 81.2605 74.6058 81.3663 74.6081C81.46 74.6067 81.5517 74.5811 81.6326 74.5338C81.7135 74.4865 81.7808 74.4191 81.8279 74.3382C81.8826 74.2483 81.9136 74.146 81.9179 74.0409C81.9453 73.9196 81.957 73.8022 81.9922 73.6848Z" fill="white"/>
<path d="M81.9923 107.134C82.0236 107.251 82.0393 107.368 82.0628 107.486C82.0848 107.589 82.0835 107.697 82.059 107.8C82.0345 107.903 81.9875 107.999 81.9212 108.082C81.855 108.165 81.7712 108.232 81.6759 108.278C81.5807 108.325 81.4763 108.349 81.3703 108.35C81.2757 108.349 81.1822 108.371 81.0986 108.416C81.0151 108.46 80.9443 108.525 80.893 108.605C80.8373 108.693 80.8037 108.794 80.7952 108.898C80.7718 109.015 80.7561 109.133 80.7248 109.25C80.6896 109.133 80.6779 109.015 80.6505 108.898C80.6284 108.767 80.6419 108.631 80.6896 108.507C80.7473 108.375 80.842 108.264 80.9622 108.185C81.0824 108.107 81.2228 108.065 81.3664 108.065C81.4598 108.062 81.5511 108.036 81.6318 107.989C81.7125 107.942 81.78 107.875 81.828 107.795C81.8833 107.704 81.9143 107.6 81.918 107.494C81.9454 107.38 81.9571 107.263 81.9923 107.134Z" fill="white"/>
<path d="M88.4278 87.9837C88.463 88.1011 88.4748 88.2224 88.4982 88.3397C88.5218 88.443 88.5217 88.5503 88.498 88.6536C88.4744 88.7568 88.4277 88.8534 88.3615 88.9361C88.2953 89.0189 88.2114 89.0856 88.1158 89.1313C88.0203 89.1771 87.9156 89.2007 87.8097 89.2004C87.7151 89.199 87.6217 89.2216 87.5383 89.2661C87.4548 89.3105 87.384 89.3754 87.3324 89.4547C87.2756 89.5427 87.242 89.6436 87.2346 89.7481C87.2072 89.8655 87.1955 89.9868 87.1603 90.1041C87.129 89.9868 87.1133 89.8655 87.0898 89.7481C87.0632 89.6167 87.0768 89.4804 87.129 89.3569C87.1846 89.2244 87.2782 89.1114 87.3979 89.032C87.5176 88.9527 87.6582 88.9105 87.8019 88.9109C87.8962 88.9102 87.9887 88.8849 88.0704 88.8376C88.152 88.7902 88.2199 88.7225 88.2674 88.641C88.3187 88.5496 88.3494 88.4481 88.3574 88.3437C88.3809 88.2224 88.4082 88.1011 88.4278 87.9837Z" fill="white"/>
<path d="M55.8163 92.3849C55.8515 92.5023 55.8633 92.6196 55.8868 92.737C55.9102 92.8405 55.9101 92.9479 55.8864 93.0514C55.8628 93.1548 55.8162 93.2516 55.7501 93.3346C55.684 93.4176 55.6001 93.4847 55.5045 93.5309C55.409 93.5771 55.3043 93.6013 55.1982 93.6016C55.1035 93.5994 55.0099 93.6217 54.9263 93.6662C54.8427 93.7107 54.772 93.7761 54.7209 93.8559C54.6635 93.9436 54.6298 94.0447 54.6231 94.1493C54.5957 94.2666 54.584 94.384 54.5488 94.5014C54.5175 94.384 54.5018 94.2666 54.4784 94.1493C54.4527 94.0179 54.4663 93.8818 54.5175 93.7581C54.5737 93.6263 54.6675 93.5141 54.7872 93.4355C54.9069 93.3568 55.0472 93.3153 55.1904 93.316C55.2844 93.3138 55.3764 93.2879 55.4577 93.2407C55.5391 93.1935 55.6073 93.1265 55.6559 93.046C55.7078 92.9535 55.7385 92.8506 55.7459 92.7448C55.7694 92.6196 55.785 92.5023 55.8163 92.3849Z" fill="white"/>
<path d="M56.45 73.6848C56.4794 73.8022 56.5029 73.9211 56.5204 74.0409C56.5493 74.1709 56.5412 74.3064 56.4969 74.4321C56.4455 74.5677 56.3547 74.6848 56.2362 74.7685C56.1177 74.8521 55.9769 74.8985 55.8318 74.9015C55.7372 74.8994 55.6435 74.9216 55.5599 74.9662C55.4763 75.0107 55.4056 75.076 55.3546 75.1558C55.2978 75.2438 55.2641 75.3448 55.2568 75.4492C55.2294 75.5666 55.2176 75.684 55.1824 75.8052C55.1511 75.684 55.1355 75.5666 55.112 75.4492C55.0857 75.3182 55.098 75.1823 55.1472 75.058C55.2039 74.9255 55.2983 74.8127 55.4186 74.7334C55.539 74.6541 55.6799 74.6119 55.824 74.612C55.9182 74.6105 56.0104 74.5849 56.0919 74.5377C56.1734 74.4904 56.2415 74.4231 56.2896 74.3421C56.3408 74.2507 56.3716 74.1492 56.3795 74.0448C56.403 73.9196 56.4187 73.8022 56.45 73.6848Z" fill="white"/>
<path d="M63.2727 61.5298C63.304 61.6471 63.3196 61.7645 63.3431 61.8858C63.3706 62.0162 63.3611 62.1517 63.3157 62.277C63.2643 62.4126 63.1735 62.5298 63.055 62.6134C62.9365 62.6971 62.7957 62.7434 62.6507 62.7465C62.556 62.7447 62.4625 62.7671 62.379 62.8116C62.2955 62.8561 62.2247 62.9212 62.1734 63.0008C62.1183 63.0896 62.0848 63.1901 62.0756 63.2942C62.0521 63.4115 62.0365 63.5289 62.0052 63.6502C61.9699 63.5289 61.9582 63.4115 61.9308 63.2942C61.9069 63.1627 61.9204 63.0271 61.9699 62.903C62.0277 62.7715 62.1224 62.6597 62.2426 62.5812C62.3628 62.5027 62.5032 62.4609 62.6467 62.4609C62.7404 62.4595 62.8322 62.4339 62.913 62.3866C62.9939 62.3393 63.0612 62.2719 63.1084 62.1909C63.163 62.101 63.194 61.9987 63.1984 61.8936C63.2257 61.7528 63.2375 61.6471 63.2727 61.5298Z" fill="white"/>
<path d="M61.4419 80.3199C61.4732 80.4412 61.4888 80.5585 61.5123 80.6759C61.5343 80.7796 61.533 80.8868 61.5086 80.9899C61.4841 81.093 61.437 81.1894 61.3708 81.2721C61.3045 81.3549 61.2207 81.4218 61.1255 81.4682C61.0302 81.5146 60.9258 81.5393 60.8198 81.5405C60.7252 81.5387 60.6317 81.5611 60.5482 81.6056C60.4646 81.6501 60.3939 81.7152 60.3426 81.7948C60.2868 81.8833 60.2533 81.9839 60.2448 82.0882C60.2213 82.2055 60.2056 82.3229 60.1743 82.4403C60.1391 82.3229 60.1235 82.2055 60.1 82.0882C60.0761 81.9567 60.0896 81.8211 60.1391 81.697C60.1968 81.5655 60.2916 81.4538 60.4118 81.3753C60.5319 81.2968 60.6724 81.2549 60.8159 81.2549C60.9094 81.2524 61.0007 81.2263 61.0814 81.1791C61.1621 81.1319 61.2295 81.0652 61.2776 80.985C61.33 80.8927 61.3608 80.7897 61.3675 80.6837C61.391 80.5585 61.4145 80.4412 61.4419 80.3199Z" fill="white"/>
<path d="M77.8844 82.8471C77.9157 82.9645 77.9314 83.0858 77.9549 83.2031C77.9769 83.3066 77.9757 83.4137 77.9512 83.5166C77.9267 83.6195 77.8796 83.7157 77.8133 83.7981C77.747 83.8806 77.6631 83.9472 77.5678 83.9931C77.4725 84.0391 77.3682 84.0632 77.2624 84.0638C77.1679 84.0628 77.0747 84.0855 76.9913 84.1299C76.9078 84.1744 76.837 84.2391 76.7851 84.3181C76.7306 84.4072 76.6971 84.5075 76.6873 84.6115C76.6639 84.7289 76.6482 84.8502 76.6169 84.9675C76.5817 84.8502 76.57 84.7289 76.5426 84.6115C76.518 84.48 76.5316 84.3443 76.5817 84.2203C76.6384 84.0878 76.7328 83.9749 76.8531 83.8957C76.9734 83.8164 77.1144 83.7742 77.2585 83.7743C77.3523 83.7737 77.4444 83.7484 77.5254 83.701C77.6064 83.6537 77.6735 83.5858 77.7201 83.5044C77.7748 83.4145 77.8057 83.3122 77.8101 83.207C77.8453 83.0858 77.8453 82.9645 77.8844 82.8471Z" fill="white"/>
<path d="M62.6859 103.949C62.7172 104.071 62.7328 104.188 62.7563 104.305C62.7798 104.409 62.7797 104.516 62.756 104.62C62.7324 104.723 62.6857 104.82 62.6196 104.903C62.5535 104.986 62.4696 105.053 62.3741 105.099C62.2786 105.145 62.1739 105.17 62.0678 105.17C61.973 105.167 61.879 105.189 61.7953 105.233C61.7116 105.278 61.641 105.344 61.5905 105.424C61.5341 105.511 61.4992 105.61 61.4888 105.714C61.4714 105.833 61.4479 105.952 61.4184 106.07C61.3871 105.952 61.3714 105.835 61.3479 105.714C61.3219 105.583 61.3341 105.447 61.3832 105.322C61.4396 105.19 61.5341 105.077 61.6545 104.999C61.775 104.92 61.9161 104.879 62.06 104.88C62.154 104.878 62.2459 104.852 62.3273 104.805C62.4087 104.758 62.4769 104.691 62.5255 104.61C62.5762 104.517 62.6069 104.415 62.6155 104.309C62.639 104.188 62.6546 104.071 62.6859 103.949Z" fill="white"/>
<path d="M75.064 76.8811C75.1266 76.7755 75.2009 76.6816 75.2674 76.5799C75.3394 76.4668 75.4427 76.3771 75.5647 76.3217C75.6942 76.2652 75.8374 76.2481 75.9765 76.2724C76.1157 76.2968 76.2445 76.3615 76.3471 76.4586C76.4135 76.5268 76.4959 76.5773 76.5868 76.6053C76.6777 76.6333 76.7742 76.638 76.8675 76.619C76.9681 76.5951 77.0618 76.5483 77.1413 76.4821C77.243 76.4116 77.3369 76.3412 77.4465 76.2786C77.3839 76.3882 77.3095 76.4821 77.243 76.5838C77.1676 76.6949 77.0616 76.7819 76.9379 76.8341C76.8055 76.8851 76.6612 76.8968 76.5224 76.8676C76.3836 76.8384 76.2561 76.7698 76.1554 76.6698C76.0878 76.6055 76.0051 76.5592 75.9148 76.5352C75.8245 76.5113 75.7297 76.5105 75.639 76.5329C75.5381 76.5622 75.4447 76.6129 75.3652 76.6816C75.2674 76.7481 75.1735 76.8224 75.064 76.8811Z" fill="white"/>
<path d="M65.4753 85.5699C65.534 85.4643 65.6084 85.3704 65.6749 85.2687C65.7317 85.179 65.808 85.1032 65.8981 85.047C65.9882 84.9907 66.0898 84.9555 66.1954 84.9438C66.3009 84.9322 66.4078 84.9445 66.508 84.9797C66.6082 85.0149 66.6991 85.0723 66.7742 85.1474C66.8392 85.2162 66.921 85.2668 67.0116 85.2942C67.1022 85.3217 67.1983 85.325 67.2906 85.3039C67.3927 85.2811 67.488 85.2341 67.5683 85.167C67.6651 85.0951 67.7656 85.0285 67.8696 84.9675C67.807 85.0731 67.7366 85.167 67.6701 85.2687C67.6102 85.3563 67.5316 85.4295 67.4399 85.4828C67.3481 85.5361 67.2456 85.5683 67.1399 85.5769C67.0342 85.5855 66.9278 85.5704 66.8287 85.5326C66.7295 85.4949 66.6401 85.4355 66.5668 85.3587C66.4998 85.2934 66.4171 85.2464 66.3266 85.2224C66.2361 85.1985 66.141 85.1982 66.0504 85.2218C65.9495 85.2511 65.8561 85.3018 65.7766 85.3704C65.6749 85.4369 65.581 85.5113 65.4753 85.5699Z" fill="white"/>
<path d="M58.9734 98.3705C59.036 98.261 59.1103 98.1671 59.1768 98.0693C59.2337 97.9796 59.31 97.9038 59.4001 97.8476C59.4902 97.7913 59.5918 97.7561 59.6973 97.7444C59.8029 97.7328 59.9097 97.7451 60.0099 97.7803C60.1101 97.8155 60.2011 97.8729 60.2761 97.948C60.3418 98.0158 60.4237 98.0658 60.5141 98.0932C60.6044 98.1206 60.7003 98.1245 60.7925 98.1045C60.8947 98.0817 60.9899 98.0347 61.0703 97.9676C61.167 97.8957 61.2676 97.8291 61.3715 97.7681C61.3089 97.8737 61.2385 97.9676 61.172 98.0693C61.1126 98.1568 61.0343 98.23 60.9429 98.2833C60.8515 98.3366 60.7493 98.3687 60.6439 98.3774C60.5384 98.386 60.4324 98.3709 60.3335 98.3332C60.2347 98.2954 60.1456 98.236 60.0727 98.1593C60.0051 98.0936 59.9217 98.0465 59.8305 98.0225C59.7394 97.9985 59.6436 97.9985 59.5524 98.0224C59.451 98.0485 59.3572 98.0981 59.2785 98.1671C59.1768 98.2375 59.0673 98.3079 58.9734 98.3705Z" fill="white"/>
<path d="M61.7821 111.668C61.8447 111.562 61.919 111.468 61.9855 111.367C62.0576 111.254 62.1609 111.164 62.2829 111.108C62.4125 111.053 62.5555 111.036 62.6944 111.061C62.8333 111.085 62.9622 111.149 63.0653 111.245C63.1306 111.314 63.2123 111.365 63.3027 111.393C63.393 111.421 63.4891 111.425 63.5817 111.406C63.6841 111.381 63.7792 111.333 63.8595 111.265C63.9573 111.198 64.0511 111.128 64.1607 111.065C64.0981 111.175 64.0277 111.269 63.9612 111.367C63.8846 111.479 63.7773 111.567 63.6521 111.621C63.5197 111.672 63.3754 111.684 63.2366 111.654C63.0978 111.625 62.9704 111.557 62.8697 111.457C62.802 111.392 62.7193 111.346 62.629 111.322C62.5388 111.298 62.4439 111.297 62.3533 111.32C62.2524 111.349 62.159 111.4 62.0794 111.468C61.9855 111.535 61.8916 111.609 61.7821 111.668Z" fill="white"/>
<path d="M74.3597 97.0522C74.4184 96.9465 74.4928 96.8526 74.5593 96.7509C74.6324 96.6389 74.7354 96.5495 74.8566 96.4927C74.9887 96.4331 75.1356 96.4142 75.2785 96.4386C75.4214 96.463 75.5537 96.5295 75.6586 96.6297C75.7239 96.6982 75.8056 96.7489 75.8959 96.7769C75.9863 96.805 76.0824 96.8095 76.175 96.7901C76.2765 96.7655 76.3714 96.7187 76.4527 96.6531C76.5505 96.5866 76.6444 96.5123 76.754 96.4497C76.6914 96.5592 76.621 96.6531 76.5545 96.7548C76.4787 96.8672 76.371 96.9544 76.2454 97.0052C76.1132 97.0572 75.9686 97.0694 75.8296 97.0402C75.6906 97.011 75.5631 96.9417 75.463 96.8409C75.3945 96.7765 75.3111 96.7302 75.2202 96.7063C75.1293 96.6824 75.0339 96.6816 74.9426 96.704C74.8417 96.7333 74.7484 96.784 74.6688 96.8527C74.5593 96.9192 74.4654 96.9935 74.3597 97.0522Z" fill="white"/>
<path d="M83.0135 102.349C83.0722 102.244 83.1466 102.15 83.2131 102.048C83.2872 101.937 83.3899 101.847 83.5104 101.79C83.6401 101.734 83.783 101.718 83.9219 101.742C84.0609 101.766 84.1897 101.83 84.2928 101.927C84.3583 101.995 84.44 102.045 84.5304 102.073C84.6207 102.101 84.7166 102.106 84.8092 102.087C84.9111 102.063 85.0062 102.016 85.087 101.95C85.1887 101.884 85.2826 101.809 85.3882 101.747C85.3295 101.856 85.2552 101.95 85.1887 102.052C85.1138 102.165 85.0059 102.252 84.8797 102.302C84.7474 102.354 84.6029 102.366 84.4638 102.337C84.3248 102.308 84.1974 102.239 84.0972 102.138C84.0288 102.074 83.9453 102.027 83.8545 102.003C83.7636 101.979 83.6682 101.979 83.5769 102.001C83.476 102.03 83.3826 102.081 83.3031 102.15C83.2131 102.216 83.1192 102.29 83.0135 102.349Z" fill="white"/>
<path d="M68.4564 106.371C68.5151 106.265 68.5894 106.171 68.6559 106.07C68.728 105.957 68.8313 105.867 68.9533 105.811C69.0854 105.752 69.2323 105.733 69.3752 105.757C69.5181 105.782 69.6504 105.848 69.7553 105.948C69.8205 106.017 69.9023 106.068 69.9926 106.096C70.083 106.124 70.1791 106.128 70.2717 106.109C70.374 106.084 70.4692 106.036 70.5494 105.968C70.6472 105.901 70.7411 105.831 70.8507 105.768C70.7881 105.878 70.7176 105.972 70.6511 106.07C70.5756 106.183 70.468 106.272 70.3421 106.324C70.2099 106.376 70.0653 106.388 69.9263 106.359C69.7872 106.33 69.6598 106.26 69.5596 106.16C69.4912 106.095 69.4078 106.049 69.3169 106.025C69.226 106.001 69.1306 106 69.0393 106.023C68.9384 106.052 68.845 106.103 68.7655 106.171C68.6559 106.238 68.562 106.312 68.4564 106.371Z" fill="white"/>
<path d="M87.2347 111.668C87.2973 111.562 87.3678 111.468 87.4343 111.367C87.5073 111.255 87.6103 111.165 87.7316 111.108C87.8637 111.049 88.0106 111.03 88.1535 111.054C88.2964 111.079 88.4287 111.145 88.5336 111.245C88.5991 111.314 88.6808 111.364 88.7711 111.392C88.8614 111.42 88.9574 111.425 89.05 111.406C89.1519 111.382 89.2469 111.335 89.3277 111.269C89.4295 111.198 89.5233 111.128 89.629 111.065C89.5703 111.175 89.496 111.269 89.4295 111.371C89.354 111.482 89.248 111.569 89.1243 111.621C88.992 111.672 88.8476 111.684 88.7087 111.655C88.5697 111.626 88.4423 111.557 88.3419 111.457C88.274 111.393 88.1913 111.346 88.1011 111.323C88.0109 111.299 87.9161 111.298 87.8255 111.32C87.723 111.348 87.6281 111.399 87.5477 111.468C87.4303 111.535 87.3365 111.609 87.2347 111.668Z" fill="white"/>
<path d="M89.3512 97.3534C89.4099 97.2439 89.4842 97.15 89.5507 97.0483C89.6248 96.937 89.7275 96.8478 89.848 96.7901C89.9801 96.7304 90.1271 96.7116 90.27 96.736C90.4128 96.7604 90.5452 96.8269 90.65 96.927C90.7155 96.9952 90.7973 97.0457 90.8876 97.0737C90.9779 97.1018 91.0738 97.1065 91.1664 97.0874C91.2683 97.0637 91.3634 97.0168 91.4442 96.9505C91.5459 96.884 91.6398 96.8096 91.7454 96.747C91.6867 96.8566 91.6124 96.9505 91.5459 97.0522C91.471 97.1654 91.3631 97.2528 91.2369 97.3026C91.1046 97.3545 90.9601 97.3667 90.821 97.3375C90.682 97.3083 90.5546 97.239 90.4544 97.1382C90.3866 97.0742 90.3038 97.0281 90.2136 97.0041C90.1234 96.9802 90.0287 96.9793 89.938 97.0013C89.8355 97.0296 89.7407 97.0804 89.6603 97.15C89.5507 97.2204 89.4568 97.2947 89.3512 97.3534Z" fill="white"/>
<path d="M55.0573 108.206C55.1198 108.096 55.1903 108.002 55.2568 107.901C55.3309 107.789 55.4336 107.7 55.5541 107.642C55.6862 107.583 55.8331 107.564 55.976 107.588C56.1189 107.613 56.2513 107.679 56.3561 107.779C56.4216 107.847 56.5033 107.898 56.5936 107.926C56.6839 107.954 56.7799 107.959 56.8725 107.94C56.9744 107.916 57.0694 107.869 57.1503 107.803C57.252 107.736 57.3459 107.662 57.4515 107.599C57.3928 107.709 57.3185 107.803 57.252 107.904C57.1776 108.017 57.0713 108.104 56.9468 108.155C56.8145 108.206 56.6701 108.218 56.5312 108.189C56.3922 108.16 56.2648 108.091 56.1644 107.991C56.0968 107.926 56.0138 107.88 55.9235 107.857C55.8331 107.834 55.7383 107.834 55.648 107.858C55.5451 107.883 55.4498 107.932 55.3702 108.002C55.2568 108.069 55.1551 108.143 55.0573 108.206Z" fill="white"/>
<path d="M53.9814 85.8712C54.0401 85.7655 54.1145 85.6717 54.181 85.5699C54.2548 85.4575 54.3575 85.367 54.4783 85.3078C54.6108 85.2487 54.7579 85.2305 54.9008 85.2556C55.0437 85.2807 55.1759 85.3479 55.2803 85.4487C55.3455 85.5171 55.4274 85.5675 55.5179 85.5949C55.6084 85.6223 55.7044 85.6259 55.7967 85.6052C55.8997 85.5848 55.9956 85.5376 56.0744 85.4682C56.1762 85.4017 56.2701 85.3274 56.3757 85.2687C56.3146 85.3726 56.248 85.4732 56.1762 85.5699C56.1009 85.6822 55.995 85.7705 55.871 85.8242C55.7387 85.8757 55.5943 85.8876 55.4554 85.8584C55.3164 85.8292 55.189 85.7603 55.0886 85.6599C55.0214 85.5949 54.9386 85.5482 54.8482 85.5242C54.7578 85.5003 54.6628 85.4998 54.5722 85.523C54.4697 85.5513 54.3748 85.6021 54.2944 85.6717C54.1849 85.7382 54.091 85.8125 53.9814 85.8712Z" fill="white"/>
<path d="M66.7467 56.0724C66.6019 56.804 63.3001 61.6198 59.9826 61.5768C58.9028 61.5572 58.7307 55.6577 58.7307 55.6577L58.6172 55.2274L57.0524 49.1713L64.0668 44.332L65.084 43.6904C65.084 43.6904 65.4009 45.3766 65.7804 47.4774C65.7804 47.5752 65.8156 47.673 65.8312 47.7786C65.8469 47.8843 65.8821 48.0055 65.8977 48.119C65.9603 48.432 66.019 48.7527 66.0738 49.0735C66.1168 49.3161 66.1559 49.5508 66.1911 49.809C66.2264 50.0672 66.2655 50.3176 66.3085 50.5915C66.5792 52.4063 66.7256 54.2376 66.7467 56.0724Z" fill="#DD6A57"/>
<path d="M65.7804 47.4774C65.22 49.2114 64.289 50.8028 63.0521 52.1411C61.8152 53.4793 60.3019 54.5325 58.6172 55.2274L57.0524 49.1713L64.0668 44.332L65.084 43.6904C65.084 43.6904 65.4009 45.3766 65.7804 47.4774Z" fill="#263238"/>
<path d="M48.4534 40.1773C48.1639 51.1548 54.7128 52.5671 57.0601 52.6258C59.2079 52.6805 66.5314 52.5945 67.9555 41.707C69.3795 30.8194 64.3641 27.232 59.4583 26.8408C54.5524 26.4496 48.7429 29.1998 48.4534 40.1773Z" fill="#DD6A57"/>
<path d="M50.12 36.8559C50.3782 36.8129 50.6051 36.7346 50.8555 36.6681C51.1228 36.6355 51.3725 36.5175 51.5675 36.3317C51.6174 36.2611 51.6425 36.176 51.639 36.0897C51.6355 36.0033 51.6034 35.9206 51.5479 35.8544C51.4176 35.7408 51.2595 35.6638 51.0897 35.6315C50.9199 35.5992 50.7445 35.6127 50.5816 35.6705C50.235 35.736 49.9253 35.9285 49.7131 36.2104C49.6687 36.2776 49.6446 36.3562 49.6437 36.4367C49.6428 36.5173 49.6652 36.5963 49.7081 36.6645C49.7511 36.7326 49.8128 36.7869 49.8858 36.8209C49.9589 36.8548 50.0402 36.867 50.12 36.8559Z" fill="#263238"/>
<path d="M57.4592 38.4599C57.2067 38.4322 56.9559 38.3904 56.7081 38.3347C56.44 38.3274 56.1817 38.2326 55.9726 38.0648C55.9165 37.999 55.8837 37.9165 55.8795 37.8301C55.8753 37.7438 55.8997 37.6584 55.9491 37.5875C56.0687 37.4625 56.2195 37.3716 56.3859 37.3241C56.5523 37.2767 56.7283 37.2744 56.8959 37.3175C57.2471 37.3537 57.5722 37.5197 57.8074 37.7831C57.8587 37.8456 57.8906 37.9218 57.8992 38.0023C57.9077 38.0827 57.8925 38.1639 57.8555 38.2358C57.8185 38.3078 57.7613 38.3673 57.6909 38.4071C57.6204 38.4469 57.5399 38.4653 57.4592 38.4599Z" fill="#263238"/>
<path d="M51.7397 40.4277C51.7397 40.4003 51.685 40.4668 51.685 40.4981C51.7593 41.2414 51.7202 42.106 51.0629 42.3994C51.0394 42.3994 51.0629 42.4463 51.0629 42.4424C51.8845 42.2703 51.9275 41.1201 51.7397 40.4277Z" fill="#263238"/>
<path d="M51.0198 39.6922C49.8149 39.6922 49.8814 42.0942 51.0003 42.106C52.1192 42.1177 52.0253 39.7039 51.0198 39.6922Z" fill="#263238"/>
<path d="M50.5232 39.8682C50.3354 40.0012 50.1554 40.236 49.9246 40.2594C49.6938 40.2829 49.4591 40.0286 49.283 39.7821C49.283 39.7587 49.2478 39.7822 49.2478 39.8095C49.2478 40.2712 49.416 40.7485 49.8581 40.8228C50.3002 40.8971 50.5505 40.4902 50.6405 40.0404C50.6679 39.9425 50.5975 39.8134 50.5232 39.8682Z" fill="#263238"/>
<path d="M56.6495 46.8162C56.4657 46.9844 56.2779 47.2074 56.004 47.2348C55.7309 47.2167 55.4645 47.1421 55.2216 47.0157C55.2163 47.0131 55.2102 47.0123 55.2044 47.0135C55.1986 47.0146 55.1933 47.0176 55.1893 47.022C55.1853 47.0264 55.1829 47.032 55.1824 47.0379C55.1818 47.0439 55.1832 47.0498 55.1864 47.0548C55.2884 47.2062 55.4297 47.327 55.5951 47.4042C55.7605 47.4814 55.9438 47.5121 56.1253 47.493C56.2799 47.4602 56.421 47.3814 56.53 47.2668C56.6389 47.1523 56.7106 47.0075 56.7356 46.8514C56.72 46.8084 56.6769 46.7927 56.6495 46.8162Z" fill="#263238"/>
<path d="M52.9094 43.8156C52.9094 43.8156 52.8233 44.9345 52.8507 45.4587C53.8753 45.4024 54.9027 45.492 55.9022 45.7247C56.1369 45.7873 56.1212 45.5956 55.8552 45.4548C55.0628 45.0419 54.1648 44.8757 53.2771 44.9775C53.2302 44.8328 53.4453 43.2562 53.3632 43.2562C52.9587 43.3155 52.564 43.4287 52.1895 43.5926C52.3069 41.2453 52.7998 38.9606 52.882 36.6329C52.8831 36.6158 52.878 36.599 52.8676 36.5854C52.8572 36.5718 52.8423 36.5625 52.8255 36.5591C52.8088 36.5558 52.7914 36.5586 52.7766 36.5672C52.7617 36.5757 52.7505 36.5893 52.745 36.6055C52.0565 38.9802 51.8609 41.6639 51.677 44.0738C51.6535 44.3711 52.7059 43.9173 52.9094 43.8156Z" fill="#263238"/>
<path d="M58.1323 40.4668C57.6929 40.2945 57.2123 40.2564 56.7513 40.3573C56.5042 40.4134 56.2703 40.5171 56.0628 40.6624C55.8488 40.8222 55.6736 41.0281 55.5503 41.2649L55.3195 41.6913L55.7928 41.6405C56.1257 41.6052 56.4614 41.6052 56.7943 41.6405C57.1418 41.6708 57.4757 41.7893 57.7646 41.9847C57.5754 41.6391 57.2578 41.3819 56.8804 41.2688C56.5126 41.1473 56.1237 41.1033 55.738 41.1397L55.9806 41.5309C56.1831 41.1914 56.4948 40.9307 56.8647 40.7915C57.2721 40.6311 57.6979 40.522 58.1323 40.4668Z" fill="#263238"/>
<path d="M56.7747 42.4111C56.4205 42.328 56.0795 42.1964 55.7614 42.0199C55.6871 41.973 55.4015 41.7578 55.4172 41.6952C55.4576 41.5133 55.5206 41.3372 55.6049 41.171C55.4734 41.3187 55.3736 41.4918 55.3115 41.6796C55.3334 41.783 55.3776 41.8804 55.4412 41.9649C55.5047 42.0493 55.586 42.1189 55.6793 42.1686C56.0157 42.3472 56.3943 42.4311 56.7747 42.4111Z" fill="#263238"/>
<path d="M54.1769 45.3804C54.1769 45.3804 54.8576 46.3585 55.64 46.4758C56.5398 46.6167 56.6454 45.8069 55.64 45.3452C55.1314 45.1066 54.1769 45.3804 54.1769 45.3804Z" fill="#263238"/>
<path d="M55.6362 46.4954C55.2952 46.4246 54.9816 46.2576 54.7325 46.0142C54.9203 45.7364 55.3507 45.4274 56.317 45.9477C56.4578 46.2763 56.2074 46.5658 55.6362 46.4954Z" fill="#FF99BA"/>
<path d="M67.889 41.969C66.0816 42.1959 65.4791 38.4129 65.4791 38.4129C65.4791 38.4129 61.7939 38.6007 60.319 33.3584C60.502 34.9421 61.1438 36.4379 62.1655 37.6618C62.1655 37.6618 55.6283 37.2705 52.6277 31.9774C52.6277 31.9774 53.8561 34.6963 54.928 35.6313C54.928 35.6313 52.1621 35.0054 50.7264 32.8537C50.7264 32.8537 49.7405 36.0499 48.9072 36.9615C48.9072 36.9615 48.6217 25.5732 59.2197 26.2696C59.2197 26.2696 65.839 26.3869 68.4641 31.4962C71.0891 36.6055 67.889 41.969 67.889 41.969Z" fill="#263238"/>
<path d="M66.199 42.5011C66.199 42.5011 68.3859 38.9371 69.9899 39.6961C71.5939 40.4551 70.0916 45.5252 68.3116 46.3115C68.0902 46.4286 67.8475 46.4997 67.5979 46.5204C67.3484 46.5412 67.0973 46.5111 66.8596 46.4322C66.622 46.3532 66.4028 46.2269 66.2153 46.061C66.0278 45.895 65.8759 45.6928 65.7687 45.4665L66.199 42.5011Z" fill="#DD6A57"/>
<path d="M69.5243 41.1397C69.5517 41.1397 69.5595 41.1749 69.5243 41.1866C68.2763 41.7813 67.6778 43.0058 67.2787 44.2655C67.6308 43.7686 68.1316 43.4831 68.7927 43.8743C68.8279 43.8938 68.7927 43.9486 68.7614 43.9447C68.5329 43.8861 68.2917 43.9001 68.0716 43.985C67.8514 44.0698 67.6631 44.2212 67.533 44.4181C67.314 44.746 67.1329 45.0977 66.9932 45.4665C66.9384 45.5839 66.731 45.5369 66.7662 45.4039C66.764 45.3936 66.764 45.3829 66.7662 45.3726C66.6567 43.7569 67.7834 41.4096 69.5243 41.1397Z" fill="#263238"/>
<path d="M67.2825 45.7404C67.2881 45.8417 67.3236 45.939 67.3846 46.0201C67.4456 46.1012 67.5293 46.1624 67.6251 46.1958C67.7208 46.2293 67.8244 46.2336 67.9226 46.2082C68.0208 46.1828 68.1093 46.1288 68.1768 46.0531C68.2443 45.9773 68.2878 45.8833 68.3018 45.7828C68.3158 45.6823 68.2997 45.5799 68.2554 45.4886C68.2112 45.3973 68.1408 45.3212 68.0533 45.2699C67.9658 45.2186 67.865 45.1945 67.7637 45.2005C67.6965 45.204 67.6307 45.2208 67.5701 45.2499C67.5094 45.279 67.4552 45.3198 67.4104 45.37C67.3657 45.4202 67.3313 45.4788 67.3094 45.5424C67.2874 45.6059 67.2783 45.6732 67.2825 45.7404Z" fill="white"/>
<path d="M68.5112 44.8914C68.5144 44.9564 68.5369 45.0191 68.5758 45.0713C68.6146 45.1236 68.6681 45.1631 68.7295 45.1849C68.7909 45.2067 68.8573 45.2097 68.9205 45.1937C68.9836 45.1776 69.0405 45.1432 69.084 45.0947C69.1275 45.0463 69.1556 44.986 69.1648 44.9215C69.174 44.857 69.1638 44.7913 69.1355 44.7326C69.1073 44.6739 69.0622 44.625 69.0061 44.592C68.95 44.5589 68.8853 44.5433 68.8203 44.5471C68.7773 44.5491 68.7351 44.5596 68.6962 44.5781C68.6573 44.5965 68.6225 44.6225 68.5937 44.6546C68.5649 44.6866 68.5428 44.724 68.5287 44.7647C68.5145 44.8054 68.5086 44.8484 68.5112 44.8914Z" fill="white"/>
<path d="M32.9109 66.2421L27.2292 67.5621L31.3161 85.1521L36.9978 83.832L32.9109 66.2421Z" fill="#EBEBEB"/>
<path d="M19.0615 19.5524C14.3146 20.6568 10.0017 23.1438 6.66798 26.6989C3.33425 30.2541 1.12937 34.7178 0.332062 39.5258C-0.465245 44.3338 0.180814 49.2703 2.18858 53.7112C4.19634 58.1521 7.47567 61.8981 11.612 64.4756C15.7484 67.0531 20.556 68.3464 25.4273 68.192C30.2985 68.0376 35.0146 66.4425 38.9795 63.6083C42.9443 60.774 45.9798 56.8279 47.7024 52.2688C49.4249 47.7097 49.7571 42.7422 48.657 37.9943C47.9259 34.8394 46.5803 31.8595 44.697 29.2249C42.8137 26.5904 40.4296 24.3528 37.6811 22.6401C34.9326 20.9274 31.8734 19.7731 28.6786 19.2433C25.4837 18.7135 22.2158 18.8186 19.0615 19.5524ZM29.0453 62.5352C25.2948 63.4076 21.3697 63.148 17.7667 61.7894C14.1637 60.4308 11.0445 58.0341 8.80374 54.9025C6.56297 51.771 5.30128 48.0452 5.17825 44.1965C5.05521 40.3478 6.07637 36.549 8.11255 33.2807C10.1487 30.0124 13.1085 27.4214 16.6174 25.8355C20.1263 24.2495 24.0267 23.7398 27.8253 24.3708C31.624 25.0019 35.1501 26.7453 37.9578 29.3806C40.7654 32.0159 42.7284 35.4247 43.5985 39.1758C44.7647 44.2032 43.8868 49.4879 41.1578 53.8683C38.4288 58.2486 34.0721 61.366 29.0453 62.5352Z" fill="#A6A6A6"/>
<path d="M34.8501 78.8543L31.0394 79.7397C29.7199 80.0463 28.8987 81.3645 29.2053 82.6841L34.0792 103.662C34.3858 104.981 35.704 105.802 37.0236 105.496L40.8342 104.61C42.1538 104.304 42.975 102.986 42.6684 101.666L37.7945 80.6885C37.4879 79.3689 36.1696 78.5477 34.8501 78.8543Z" fill="#263238"/>
<g opacity="0.3">
<path d="M43.5987 39.168C44.4683 42.9176 44.2066 46.8408 42.8466 50.4417C41.4867 54.0426 39.0896 57.1594 35.9584 59.398C32.8272 61.6366 29.1025 62.8965 25.2553 63.0184C21.4081 63.1402 17.6112 62.1187 14.3445 60.0828C11.0779 58.0469 8.48829 55.0881 6.90312 51.5805C5.31796 48.0729 4.80842 44.1741 5.43894 40.377C6.06946 36.5798 7.81172 33.0549 10.4454 30.2479C13.0791 27.4409 16.486 25.4778 20.2353 24.6069C22.7255 24.028 25.3054 23.9454 27.8275 24.364C30.3496 24.7825 32.7646 25.694 34.9343 27.0462C37.104 28.3985 38.986 30.165 40.4727 32.2449C41.9593 34.3249 43.0216 36.6773 43.5987 39.168Z" fill="white"/>
<path d="M44.0761 44.6528C43.7888 49.7766 41.4907 54.5799 37.6813 58.0186C33.872 61.4572 28.8593 63.2533 23.7329 63.0164L44.0761 44.6528Z" fill="#EBEBEB"/>
<path d="M35.1214 27.1694L7.2552 52.3206C6.56193 50.9395 6.03656 49.4803 5.69035 47.9742C5.28485 46.2487 5.12158 44.4751 5.20524 42.7045L25.7792 24.1336C29.1018 24.3291 32.3186 25.3744 35.1214 27.1694Z" fill="#EBEBEB"/>
<path d="M43.0628 37.3019L16.5189 61.256C15.3589 60.7229 14.2543 60.0769 13.2209 59.3273L41.4862 33.8201C42.1285 34.9242 42.6567 36.0908 43.0628 37.3019Z" fill="#EBEBEB"/>
<path d="M37.2612 28.7577L8.60081 54.617C8.4678 54.4214 8.33478 54.2258 8.20959 54.0263L36.7057 28.3117C36.9013 28.4526 37.0852 28.5973 37.2612 28.7577Z" fill="#EBEBEB"/>
<path d="M19.2887 24.8534L6.57422 36.3238C6.78939 35.78 7.03194 35.2479 7.29796 34.7315L17.6378 25.3972C18.1737 25.1976 18.7254 25.0138 19.2887 24.8534Z" fill="#EBEBEB"/>
</g>
<path d="M10.8225 46.9375C10.8207 46.9114 10.8207 46.8853 10.8225 46.8592C10.7521 46.468 10.8734 47.2309 10.8225 46.9766C10.7717 46.7223 10.7443 46.3741 10.7208 46.0729C10.6308 45.0107 10.6308 43.9428 10.7208 42.8805C10.7208 42.728 10.7482 42.5793 10.7599 42.4307C10.7599 42.3837 10.7169 42.7827 10.7599 42.4659L10.7951 42.192C10.8421 41.8399 10.9008 41.4878 10.9712 41.1396C11.1196 40.372 11.3195 39.6152 11.5697 38.8745C11.6284 38.6985 11.6949 38.5224 11.7575 38.3464C11.8397 38.1077 11.648 38.6085 11.7771 38.2955L11.9062 37.9865C12.0744 37.5952 12.2583 37.204 12.4539 36.8128C12.6495 36.4216 12.9038 36.003 13.1503 35.6157C13.2676 35.4357 13.385 35.2597 13.5063 35.0836C13.7136 34.7824 13.4084 35.2049 13.5688 34.9937L13.7997 34.6885C14.5121 33.793 15.3086 32.9676 16.1782 32.2239C16.1782 32.2239 16.3582 32.0791 16.2252 32.1886C16.0922 32.2982 16.2956 32.13 16.3191 32.1104L16.7103 31.8013C16.9724 31.6057 17.2384 31.4101 17.5123 31.238C18.0859 30.8546 18.6787 30.5007 19.2884 30.1778C19.4518 30.075 19.5933 29.9411 19.7049 29.7837C19.8165 29.6262 19.8961 29.4483 19.9389 29.2602C19.9818 29.072 19.9872 28.8772 19.9548 28.6869C19.9224 28.4967 19.8528 28.3147 19.75 28.1513C19.6473 27.9879 19.5134 27.8464 19.3559 27.7348C19.1985 27.6232 19.0206 27.5437 18.8324 27.5008C18.6442 27.4579 18.4495 27.4525 18.2592 27.4849C18.0689 27.5174 17.8869 27.5869 17.7236 27.6897C13.8584 29.7514 10.6817 33.0063 9.08553 37.1101C8.00489 39.8699 7.54412 42.8336 7.73583 45.7912C7.7749 46.4481 7.85855 47.1017 7.98621 47.7473C8.09766 48.1196 8.35197 48.4328 8.69357 48.6182C9.03516 48.8037 9.43628 48.8464 9.80927 48.737C10.1762 48.6162 10.483 48.3598 10.667 48.0201C10.851 47.6805 10.8983 47.2834 10.799 46.9101L10.8225 46.9375Z" fill="white"/>
<path d="M12.1213 51.1C12.2022 51.3729 12.2005 51.6637 12.1162 51.9356C12.032 52.2074 11.869 52.4482 11.6479 52.6275C11.4268 52.8068 11.1576 52.9166 10.8741 52.9429C10.5907 52.9692 10.3059 52.9109 10.0556 52.7754C9.80525 52.6398 9.60074 52.4331 9.46787 52.1814C9.335 51.9297 9.27973 51.6442 9.30905 51.3611C9.33837 51.078 9.45097 50.8099 9.63261 50.5907C9.81425 50.3716 10.0568 50.2112 10.3295 50.1298C10.5109 50.0752 10.7012 50.0569 10.8897 50.0762C11.0781 50.0954 11.2608 50.1518 11.4274 50.242C11.5939 50.3321 11.741 50.4544 11.8601 50.6017C11.9792 50.7489 12.0679 50.9183 12.1213 51.1Z" fill="white"/>
<path d="M74.3755 63.435C77.8964 76.1652 79.5865 88.9462 77.6382 95.5381C76.3942 99.7398 73.3935 102.58 71.4844 103.519C67.0207 105.725 52.2132 102.596 42.5658 100.655C40.195 100.178 45.7855 81.0749 48.168 82.0882C51.6889 83.5787 62.4669 85.5895 62.7642 85.6874C63.4019 85.9064 64.7203 72.0926 65.6514 63.9945C66.9385 52.7118 72.3451 56.0841 74.3755 63.435Z" fill="#DD6A57"/>
<path d="M24.0261 78.4499C22.9777 80.1595 24.3391 81.7244 24.3391 81.7244C23.4454 82.1713 22.7366 82.9175 22.3361 83.833C21.7062 85.4761 24.0066 87.1857 24.0066 87.1857C23.1764 87.8419 22.5641 88.7338 22.25 89.7443C21.804 91.3795 23.8814 93.4334 23.8814 93.4334C23.4524 94.4575 23.4066 95.6019 23.7523 96.657C24.789 99.4386 29.2293 100.35 32.046 100.96C34.8628 101.571 43.4226 100.647 45.0735 100.64L49.1226 82.5929C49.1226 82.5929 37.2648 76.2747 33.8652 76.0322C30.9741 75.8366 25.2037 76.5329 24.0261 78.4499Z" fill="#DD6A57"/>
<path d="M24.5267 81.4622C27.6564 80.9498 30.7313 81.3801 33.8415 81.6344C33.856 81.6344 33.8699 81.6401 33.8802 81.6504C33.8905 81.6607 33.8963 81.6746 33.8963 81.6891C33.8963 81.7037 33.8905 81.7176 33.8802 81.7279C33.8699 81.7381 33.856 81.7439 33.8415 81.7439C30.747 81.4544 27.6368 81.7791 24.5423 81.6148C24.5243 81.6131 24.5075 81.6051 24.4947 81.5924C24.4819 81.5797 24.4739 81.5629 24.4721 81.5449C24.4702 81.527 24.4747 81.5089 24.4846 81.4939C24.4946 81.4788 24.5094 81.4676 24.5267 81.4622Z" fill="#263238"/>
<path d="M24.1198 86.9627C24.8373 86.9127 25.5583 86.9587 26.2636 87.0996C27.0174 87.1987 27.7698 87.3108 28.5209 87.436C30.0258 87.6968 31.5229 87.985 33.0121 88.3006C33.0786 88.3006 33.0747 88.418 33.0121 88.4062C31.5098 88.1598 30.0076 87.9368 28.5014 87.7529C27.7463 87.659 26.9913 87.5769 26.2323 87.4947C25.5144 87.4656 24.8019 87.3567 24.108 87.17C24.0867 87.1615 24.0686 87.1465 24.0563 87.1271C24.044 87.1078 24.0381 87.085 24.0394 87.0621C24.0407 87.0392 24.0491 87.0173 24.0635 86.9994C24.078 86.9816 24.0976 86.9687 24.1198 86.9627Z" fill="#263238"/>
<path d="M23.944 93.4412C24.5543 93.3356 25.2663 93.5546 25.8687 93.6681C26.5534 93.7972 27.2341 93.9185 27.9187 94.0397C29.288 94.2823 30.6572 94.5209 32.0343 94.7166C32.1008 94.7166 32.093 94.8339 32.0343 94.8222C30.6337 94.6344 29.2332 94.4623 27.8366 94.2627C27.1519 94.1649 26.4634 94.0593 25.7788 93.9537C25.1959 93.8637 24.4604 93.8168 23.9401 93.5116C23.9336 93.508 23.9283 93.5027 23.9247 93.4963C23.9211 93.4899 23.9195 93.4825 23.9199 93.4752C23.9203 93.4678 23.9227 93.4607 23.927 93.4547C23.9313 93.4487 23.9372 93.444 23.944 93.4412Z" fill="#263238"/>
<path d="M27.8913 76.5799C26.4712 76.7637 24.8438 77.0767 23.9244 78.2856C23.4994 78.7984 23.2904 79.4563 23.3415 80.1204C23.4224 80.7404 23.7356 81.3067 24.2178 81.7048C23.6502 81.8876 23.1457 82.2269 22.7623 82.6837C22.3789 83.1404 22.1322 83.6961 22.0505 84.2868C22.0267 84.5826 22.064 84.8801 22.1603 85.1608C22.2565 85.4415 22.4096 85.6993 22.6099 85.9182C22.8055 86.149 23.0285 86.3524 23.2437 86.5637C23.4589 86.7749 23.6975 86.9549 23.9205 87.1388C23.6794 87.3271 23.4531 87.5338 23.2437 87.7569C23.0089 87.9825 22.7978 88.2315 22.6138 88.5002C22.2331 89.0324 22.0181 89.6653 21.9957 90.3193C22.0283 90.9693 22.2544 91.5946 22.6451 92.115C22.9628 92.6531 23.4108 93.1024 23.9479 93.4217C23.9546 93.425 23.9623 93.4257 23.9695 93.4238C23.9767 93.4219 23.983 93.4175 23.9873 93.4113C23.9915 93.4052 23.9935 93.3977 23.9927 93.3903C23.9919 93.3829 23.9885 93.376 23.9831 93.3708C23.5609 92.9854 23.203 92.5351 22.9229 92.0368C22.5845 91.5052 22.3991 90.8907 22.3869 90.2607C22.4388 89.6633 22.6406 89.0887 22.9738 88.5902C23.1395 88.3198 23.3197 88.0586 23.5136 87.8078C23.7068 87.6026 23.8871 87.3857 24.0535 87.1583C24.0535 87.1583 23.588 86.6654 23.4237 86.4542C23.2593 86.2429 23.0989 86.016 22.9503 85.7852C22.6353 85.3471 22.4958 84.807 22.5591 84.2712C22.6514 83.771 22.8786 83.3057 23.2163 82.9254C23.5449 82.5342 23.9714 82.2251 24.3156 81.8417C24.328 81.8214 24.3361 81.7988 24.3394 81.7753C24.3428 81.7517 24.3413 81.7278 24.3352 81.7048C23.5528 80.4842 23.6506 79.3262 24.4878 78.4225C24.9143 77.9843 25.4132 77.623 25.9626 77.3545C26.5949 77.067 27.249 76.8303 27.9187 76.6464C27.9461 76.6425 27.9344 76.576 27.8913 76.5799Z" fill="#263238"/>
<path d="M53.8287 102.866C52.9954 102.607 52.1152 102.474 51.2623 102.287C50.4095 102.099 49.5488 101.923 48.6881 101.751C47.8274 101.578 46.9316 101.406 46.0552 101.242C45.1789 101.078 44.3613 100.894 43.5084 100.792C42.685 100.712 41.855 100.731 41.036 100.847C40.2092 100.941 39.3798 101.007 38.5478 101.046C36.8716 101.127 35.1918 101.091 33.5207 100.937C31.63 100.761 29.7574 100.428 27.9224 99.9392C27.8833 99.9392 27.8716 99.9862 27.9224 99.9979C31.1038 101.06 34.4389 101.589 37.7928 101.563C38.6222 101.563 39.4554 101.512 40.2809 101.43C41.1057 101.313 41.9363 101.242 42.769 101.219C43.6494 101.277 44.5235 101.408 45.3823 101.61C46.2469 101.77 47.1076 101.934 47.9722 102.087C48.9502 102.259 49.9283 102.435 50.9102 102.588C51.8922 102.74 52.8663 102.959 53.8287 103.03C53.8991 103.014 53.903 102.885 53.8287 102.866Z" fill="#263238"/>
<path d="M65.9799 86.4776C64.728 86.0511 63.4057 85.7851 62.1186 85.4761C60.8315 85.167 59.5287 84.8697 58.2338 84.5763C55.7613 84.0168 53.2576 83.5435 50.8007 82.8588C50.1552 82.6789 49.5176 82.4676 48.8877 82.2564C48.5708 82.1429 48.2618 82.0177 47.9527 81.8651C47.6436 81.7126 47.2876 81.6187 46.9825 81.4739C46.9473 81.4505 46.9199 81.5052 46.9551 81.5287C47.2016 81.6813 47.4285 81.8651 47.6828 82.0138C47.937 82.1625 48.2461 82.3111 48.5356 82.4441C49.0648 82.686 49.6068 82.8989 50.1592 83.0818C51.3093 83.473 52.5064 83.743 53.6801 84.0168C56.2621 84.6076 58.848 85.1905 61.4379 85.7499C62.1655 85.9064 62.8971 86.0629 63.6287 86.2076C64.3602 86.3524 65.1583 86.5323 65.9329 86.6184C65.9513 86.6235 65.9709 86.6213 65.9877 86.6123C66.0045 86.6034 66.0172 86.5883 66.0232 86.5703C66.0292 86.5522 66.0281 86.5325 66.02 86.5153C66.012 86.498 65.9976 86.4845 65.9799 86.4776Z" fill="#263238"/>
<path d="M61.9073 81.7439L79.8015 84.1773C79.8015 84.1773 76.531 65.575 73.0531 59.4134C69.6221 53.3339 65.8351 57.3516 64.3916 64.7065C62.7719 72.8594 61.9073 81.7439 61.9073 81.7439Z" fill="#37474F"/>
<path d="M78.4595 81.4818C77.9588 81.3644 77.4463 81.2901 76.9455 81.1805C76.4448 81.071 75.9636 80.9966 75.4706 80.9184C74.4652 80.7619 73.4559 80.6211 72.4466 80.4842C70.4592 80.2103 68.4757 79.9091 66.4805 79.7017C65.346 79.5765 64.2154 79.4083 63.0809 79.3105C63.0726 79.3105 63.0646 79.3138 63.0587 79.3197C63.0529 79.3256 63.0496 79.3335 63.0496 79.3418C63.0496 79.3501 63.0529 79.3581 63.0587 79.3639C63.0646 79.3698 63.0726 79.3731 63.0809 79.3731C65.0565 79.8347 67.0712 80.179 69.0743 80.5037C71.0773 80.8284 73.049 81.1336 75.0442 81.3527C75.6036 81.4113 76.1631 81.4857 76.7264 81.5131C77.2898 81.5404 77.8805 81.5913 78.4556 81.603C78.4717 81.6035 78.4873 81.5977 78.4991 81.5867C78.5108 81.5757 78.5177 81.5604 78.5182 81.5444C78.5187 81.5283 78.5128 81.5126 78.5018 81.5009C78.4908 81.4892 78.4756 81.4823 78.4595 81.4818Z" fill="#263238"/>
<path d="M72.3539 13.2998C72.1242 15.5006 71.2875 17.5943 69.9371 19.3472C68.5867 21.1001 66.7758 22.4432 64.7064 23.2267C62.637 24.0103 60.3906 24.2033 58.2179 23.7844C56.0452 23.3654 54.0316 22.351 52.402 20.8542L46.4242 21.7344L49.417 16.5665C48.7307 14.8844 48.437 13.068 48.5582 11.2554C48.6795 9.44276 49.2125 7.68165 50.1167 6.106C51.0209 4.53034 52.2726 3.18164 53.7764 2.16245C55.2803 1.14326 56.9967 0.480437 58.7953 0.224379C60.5938 -0.0316795 62.4271 0.125777 64.1556 0.684768C65.8841 1.24376 67.4624 2.18956 68.7705 3.45026C70.0785 4.71095 71.0818 6.25333 71.7041 7.96009C72.3264 9.66686 72.5513 11.4931 72.3617 13.2998H72.3539Z" fill="white"/>
<path d="M72.354 13.2998C72.1251 15.5023 71.291 17.5983 69.9442 19.3558C69.2828 20.2405 68.4914 21.02 67.5969 21.6679C65.8195 23.0021 63.7097 23.8222 61.4978 24.0387C60.9465 24.0902 60.392 24.1007 59.8391 24.07C59.285 24.0578 58.7328 24.0003 58.1882 23.8979C55.9852 23.4944 53.9383 22.4851 52.2769 20.9833L52.4177 21.0263L46.4517 21.9418L46.0175 22.0083L46.2365 21.6171L49.2098 16.4413V16.6447C48.3411 14.507 48.1022 12.1653 48.5213 9.89623C48.9404 7.62712 49.9999 5.52529 51.5749 3.83887C53.1499 2.15244 55.1744 0.951846 57.4096 0.378812C59.6448 -0.194222 61.9973 -0.115767 64.1894 0.604914C65.9156 1.19144 67.4889 2.15651 68.794 3.42949C70.0965 4.69742 71.0938 6.2448 71.7106 7.95473C72.3273 9.66466 72.5473 11.4924 72.354 13.2998ZM72.354 13.2998C72.5426 11.5024 72.3162 9.68559 71.6923 7.98934C71.0685 6.29308 70.0638 4.76256 68.7556 3.51556C67.4473 2.26855 65.8705 1.3383 64.1463 0.796394C62.4221 0.254487 60.5966 0.115372 58.8102 0.389748C57.0369 0.656801 55.3481 1.32588 53.8731 2.34582C52.4121 3.37458 51.1932 4.70967 50.3013 6.25797C49.4202 7.80659 48.9012 9.53464 48.7833 11.3125C48.6749 13.0877 48.9622 14.865 49.6245 16.5156L49.6675 16.6252L49.6127 16.723L46.6043 21.8792L46.3891 21.5623L52.3708 20.7251H52.4529L52.5116 20.7799C54.1095 22.2733 56.0911 23.2932 58.2351 23.7257C58.7688 23.8352 59.3104 23.9019 59.8547 23.9252C60.3992 23.9624 60.9455 23.9624 61.49 23.9252C62.5804 23.8402 63.6536 23.6032 64.6784 23.2211C65.7117 22.8451 66.6834 22.3177 67.5617 21.6562C68.0035 21.3325 68.4242 20.981 68.8214 20.6038C69.2085 20.2155 69.5717 19.8039 69.909 19.3715C71.2708 17.6132 72.1173 15.5112 72.354 13.2998Z" fill="#263238"/>
<path d="M54.6318 17.6384C54.6244 17.4797 54.6492 17.3212 54.7049 17.1724C54.7605 17.0236 54.8458 16.8877 54.9555 16.7729C55.0653 16.658 55.1972 16.5666 55.3433 16.5043C55.4893 16.4419 55.6466 16.4098 55.8054 16.41C56.1312 16.41 56.4437 16.5394 56.674 16.7698C56.9044 17.0001 57.0338 17.3126 57.0338 17.6384C57.0338 17.9642 56.9044 18.2766 56.674 18.507C56.4437 18.7374 56.1312 18.8668 55.8054 18.8668C55.6466 18.867 55.4893 18.8349 55.3433 18.7725C55.1972 18.7102 55.0653 18.6188 54.9555 18.5039C54.8458 18.3891 54.7605 18.2531 54.7049 18.1044C54.6492 17.9556 54.6244 17.7971 54.6318 17.6384ZM55.1286 14.806L54.8509 5.29556H56.7522L56.4588 14.7943L55.1286 14.806Z" fill="#FFC727"/>
<path d="M59.1974 17.6384C59.19 17.4797 59.2149 17.3212 59.2706 17.1724C59.3262 17.0236 59.4115 16.8877 59.5212 16.7729C59.6309 16.658 59.7628 16.5666 59.9089 16.5043C60.055 16.4419 60.2122 16.4098 60.3711 16.41C60.6969 16.41 61.0093 16.5394 61.2397 16.7698C61.4701 17.0001 61.5995 17.3126 61.5995 17.6384C61.5995 17.9642 61.4701 18.2766 61.2397 18.507C61.0093 18.7374 60.6969 18.8668 60.3711 18.8668C60.2122 18.867 60.055 18.8349 59.9089 18.7725C59.7628 18.7102 59.6309 18.6188 59.5212 18.5039C59.4115 18.3891 59.3262 18.2531 59.2706 18.1044C59.2149 17.9556 59.19 17.7971 59.1974 17.6384ZM59.6943 14.806L59.4165 5.29556H61.3178L61.0401 14.806H59.6943Z" fill="#FFC727"/>
<path d="M63.7474 17.6384C63.74 17.4797 63.7648 17.3212 63.8205 17.1724C63.8761 17.0236 63.9614 16.8877 64.0711 16.7729C64.1809 16.658 64.3128 16.5666 64.4589 16.5043C64.6049 16.4419 64.7622 16.4098 64.921 16.41C65.2468 16.41 65.5593 16.5394 65.7896 16.7698C66.02 17.0001 66.1494 17.3126 66.1494 17.6384C66.1494 17.9642 66.02 18.2766 65.7896 18.507C65.5593 18.7374 65.2468 18.8668 64.921 18.8668C64.7622 18.867 64.6049 18.8349 64.4589 18.7725C64.3128 18.7102 64.1809 18.6188 64.0711 18.5039C63.9614 18.3891 63.8761 18.2531 63.8205 18.1044C63.7648 17.9556 63.74 17.7971 63.7474 17.6384ZM64.2442 14.806L63.9665 5.29556H65.8678L65.59 14.806H64.2442Z" fill="#FFC727"/>
</g>
</svg>
