<svg width="23" height="21" viewBox="0 0 23 21" fill="none" xmlns="http://www.w3.org/2000/svg">
<path d="M0.75 3.7493H0.8565C1.0202 4.39249 1.39354 4.9628 1.91754 5.37013C2.44153 5.77746 3.08631 5.9986 3.75 5.9986C4.41369 5.9986 5.05847 5.77746 5.58246 5.37013C6.10646 4.9628 6.4798 4.39249 6.6435 3.7493H21.75C21.9489 3.7493 22.1397 3.67028 22.2803 3.52963C22.421 3.38898 22.5 3.19821 22.5 2.9993C22.5 2.80039 22.421 2.60962 22.2803 2.46897C22.1397 2.32832 21.9489 2.2493 21.75 2.2493H6.6435C6.4798 1.60611 6.10646 1.0358 5.58246 0.628467C5.05847 0.221134 4.41369 0 3.75 0C3.08631 0 2.44153 0.221134 1.91754 0.628467C1.39354 1.0358 1.0202 1.60611 0.8565 2.2493H0.75C0.551088 2.2493 0.360322 2.32832 0.21967 2.46897C0.0790176 2.60962 0 2.80039 0 2.9993C0 3.19821 0.0790176 3.38898 0.21967 3.52963C0.360322 3.67028 0.551088 3.7493 0.75 3.7493ZM3.75 1.4993C4.04667 1.4993 4.33668 1.58727 4.58335 1.75209C4.83003 1.91692 5.02229 2.15118 5.13582 2.42527C5.24935 2.69936 5.27906 3.00096 5.22118 3.29193C5.1633 3.58291 5.02044 3.85018 4.81066 4.05996C4.60088 4.26974 4.33361 4.4126 4.04264 4.47048C3.75166 4.52835 3.45006 4.49865 3.17597 4.38512C2.90189 4.27159 2.66762 4.07933 2.5028 3.83265C2.33797 3.58598 2.25 3.29597 2.25 2.9993C2.25 2.60147 2.40804 2.21994 2.68934 1.93864C2.97064 1.65733 3.35218 1.4993 3.75 1.4993ZM21.75 9.7493H21.6435C21.4798 9.10611 21.1065 8.5358 20.5825 8.12847C20.0585 7.72113 19.4137 7.5 18.75 7.5C18.0863 7.5 17.4415 7.72113 16.9175 8.12847C16.3935 8.5358 16.0202 9.10611 15.8565 9.7493H0.75C0.551088 9.7493 0.360322 9.82832 0.21967 9.96897C0.0790176 10.1096 0 10.3004 0 10.4993C0 10.6982 0.0790176 10.889 0.21967 11.0296C0.360322 11.1703 0.551088 11.2493 0.75 11.2493H15.8565C16.0202 11.8925 16.3935 12.4628 16.9175 12.8701C17.4415 13.2775 18.0863 13.4986 18.75 13.4986C19.4137 13.4986 20.0585 13.2775 20.5825 12.8701C21.1065 12.4628 21.4798 11.8925 21.6435 11.2493H21.75C21.9489 11.2493 22.1397 11.1703 22.2803 11.0296C22.421 10.889 22.5 10.6982 22.5 10.4993C22.5 10.3004 22.421 10.1096 22.2803 9.96897C22.1397 9.82832 21.9489 9.7493 21.75 9.7493ZM18.75 11.9993C18.4533 11.9993 18.1633 11.9113 17.9166 11.7465C17.67 11.5817 17.4777 11.3474 17.3642 11.0733C17.2506 10.7992 17.2209 10.4976 17.2788 10.2067C17.3367 9.91569 17.4796 9.64842 17.6893 9.43864C17.8991 9.22886 18.1664 9.086 18.4574 9.02812C18.7483 8.97024 19.0499 8.99995 19.324 9.11348C19.5981 9.22701 19.8324 9.41927 19.9972 9.66594C20.162 9.91262 20.25 10.2026 20.25 10.4993C20.25 10.8971 20.092 11.2787 19.8107 11.56C19.5294 11.8413 19.1478 11.9993 18.75 11.9993ZM21.75 17.2493H14.1435C13.9798 16.6061 13.6065 16.0358 13.0825 15.6285C12.5585 15.2211 11.9137 15 11.25 15C10.5863 15 9.94153 15.2211 9.41754 15.6285C8.89354 16.0358 8.5202 16.6061 8.3565 17.2493H0.75C0.551088 17.2493 0.360322 17.3283 0.21967 17.469C0.0790176 17.6096 0 17.8004 0 17.9993C0 18.1982 0.0790176 18.389 0.21967 18.5296C0.360322 18.6703 0.551088 18.7493 0.75 18.7493H8.3565C8.5202 19.3925 8.89354 19.9628 9.41754 20.3701C9.94153 20.7775 10.5863 20.9986 11.25 20.9986C11.9137 20.9986 12.5585 20.7775 13.0825 20.3701C13.6065 19.9628 13.9798 19.3925 14.1435 18.7493H21.75C21.9489 18.7493 22.1397 18.6703 22.2803 18.5296C22.421 18.389 22.5 18.1982 22.5 17.9993C22.5 17.8004 22.421 17.6096 22.2803 17.469C22.1397 17.3283 21.9489 17.2493 21.75 17.2493ZM11.25 19.4993C10.9533 19.4993 10.6633 19.4113 10.4166 19.2465C10.17 19.0817 9.97771 18.8474 9.86418 18.5733C9.75065 18.2992 9.72094 17.9976 9.77882 17.7067C9.8367 17.4157 9.97956 17.1484 10.1893 16.9386C10.3991 16.7289 10.6664 16.586 10.9574 16.5281C11.2483 16.4702 11.5499 16.4999 11.824 16.6135C12.0981 16.727 12.3324 16.9193 12.4972 17.1659C12.662 17.4126 12.75 17.7026 12.75 17.9993C12.75 18.3971 12.592 18.7787 12.3107 19.06C12.0294 19.3413 11.6478 19.4993 11.25 19.4993Z" fill="white"/>
</svg>
