<svg width="12" height="12" viewBox="0 0 12 12" fill="none" xmlns="http://www.w3.org/2000/svg">
<path d="M8.15846 2.80176C8.77989 3.00027 9.22143 3.55817 9.27661 4.21459M5.83778 10.8522C4.57159 10.0729 3.39367 9.15579 2.32511 8.11718C1.57386 7.36922 1.00195 6.45737 0.653166 5.45148C0.0255264 3.50018 0.758651 1.26632 2.81035 0.60522C3.88863 0.258087 5.06629 0.456489 5.97491 1.13836C6.88389 0.457319 8.06113 0.258987 9.13948 0.60522C11.1912 1.26632 11.9296 3.50018 11.3019 5.45148C10.9532 6.45737 10.3812 7.36922 9.62999 8.11718C8.56143 9.15579 7.38351 10.0729 6.11732 10.8522L5.98019 10.9375L5.83778 10.8522Z" stroke="#6D6D6D" stroke-width="0.875" stroke-linecap="round" stroke-linejoin="round"/>
</svg>
