<svg width="24" height="24" viewBox="0 0 24 24" fill="none" xmlns="http://www.w3.org/2000/svg">
<path fill-rule="evenodd" clip-rule="evenodd" d="M21.6 20.4108C21.6 21.072 21.008 21.6 20.3463 21.6H16.7463C16.5959 21.6037 16.4464 21.5756 16.3067 21.5173C16.1669 21.4591 16.0397 21.3719 15.9327 21.2609C15.8258 21.1499 15.7412 21.0174 15.684 20.8714C15.6268 20.7253 15.5983 20.5687 15.6 20.4108V16.8108C15.5977 16.6517 15.6257 16.4938 15.6824 16.3463C15.7392 16.1988 15.8234 16.0647 15.9302 15.9518C16.037 15.839 16.1642 15.7498 16.3044 15.6893C16.4445 15.6289 16.5948 15.5985 16.7463 15.6H20.3463C21.0091 15.6 21.6 16.1496 21.6 16.8108V20.4108ZM20.3463 13.2H16.7463C14.7577 13.2 13.2 14.8224 13.2 16.8108V20.4108C13.2 22.3992 14.7577 24 16.7463 24H20.3463C22.3349 24 24 22.3992 24 20.4108V16.8108C24 14.8224 22.3349 13.2 20.3463 13.2ZM8.4 20.4108C8.4 21.072 7.808 21.6 7.14629 21.6H3.54629C3.39594 21.6037 3.24643 21.5756 3.10666 21.5173C2.96689 21.4591 2.83972 21.3719 2.73275 21.2609C2.62577 21.1499 2.54118 21.0174 2.48401 20.8714C2.42684 20.7253 2.39827 20.5687 2.4 20.4108V16.8108C2.39771 16.6517 2.42574 16.4938 2.48245 16.3463C2.53916 16.1988 2.62339 16.0647 2.7302 15.9518C2.83702 15.839 2.96424 15.7498 3.10439 15.6893C3.24454 15.6289 3.39479 15.5985 3.54629 15.6H7.14629C7.80914 15.6 8.4 16.1496 8.4 16.8108V20.4108ZM7.14629 13.2H3.54629C1.55771 13.2 0 14.8224 0 16.8108V20.4108C0 22.3992 1.55771 24 3.54629 24H7.14629C9.13486 24 10.8 22.3992 10.8 20.4108V16.8108C10.8 14.8224 9.13486 13.2 7.14629 13.2ZM21.6 7.2108C21.6 7.872 21.008 8.4 20.3463 8.4H16.7463C16.5959 8.40372 16.4464 8.3756 16.3067 8.31734C16.1669 8.25908 16.0397 8.17185 15.9327 8.06087C15.8258 7.94989 15.7412 7.81743 15.684 7.67138C15.6268 7.52533 15.5983 7.36869 15.6 7.2108V3.6108C15.5977 3.45174 15.6257 3.2938 15.6824 3.14629C15.7392 2.99877 15.8234 2.86465 15.9302 2.75183C16.037 2.63901 16.1642 2.54976 16.3044 2.48934C16.4445 2.42892 16.5948 2.39854 16.7463 2.4H20.3463C21.0091 2.4 21.6 2.9496 21.6 3.6108V7.2108ZM20.3463 0H16.7463C14.7577 0 13.2 1.6224 13.2 3.6108V7.2108C13.2 9.1992 14.7577 10.8 16.7463 10.8H20.3463C22.3349 10.8 24 9.1992 24 7.2108V3.6108C24 1.6224 22.3349 0 20.3463 0ZM8.4 7.2108C8.4 7.872 7.808 8.4 7.14629 8.4H3.54629C3.39594 8.40372 3.24643 8.3756 3.10666 8.31734C2.96689 8.25908 2.83972 8.17185 2.73275 8.06087C2.62577 7.94989 2.54118 7.81743 2.48401 7.67138C2.42684 7.52533 2.39827 7.36869 2.4 7.2108V3.6108C2.39771 3.45174 2.42574 3.2938 2.48245 3.14629C2.53916 2.99877 2.62339 2.86465 2.7302 2.75183C2.83702 2.63901 2.96424 2.54976 3.10439 2.48934C3.24454 2.42892 3.39479 2.39854 3.54629 2.4H7.14629C7.80914 2.4 8.4 2.9496 8.4 3.6108V7.2108ZM7.14629 0H3.54629C1.55771 0 0 1.6224 0 3.6108V7.2108C0 9.1992 1.55771 10.8 3.54629 10.8H7.14629C9.13486 10.8 10.8 9.1992 10.8 7.2108V3.6108C10.8 1.6224 9.13486 0 7.14629 0Z" fill="#5E5E5E"/>
</svg>
